<?xml version="1.0" encoding="UTF-8"?>
<svg version="1.1" xmlns="http://www.w3.org/2000/svg" width="580" height="580">
<path d="M0 0 C191.4 0 382.8 0 580 0 C580 191.4 580 382.8 580 580 C388.6 580 197.2 580 0 580 C0 388.6 0 197.2 0 0 Z " fill="#000000" transform="translate(0,0)"/>
<path d="M0 0 C0.67343445 -0.00014603 1.3468689 -0.00029205 2.04071045 -0.0004425 C4.26455924 0.00025364 6.48832406 0.00803207 8.7121582 0.01586914 C10.25486709 0.01773438 11.79757657 0.01915778 13.34028625 0.02015686 C17.39927813 0.0239737 21.45823418 0.03379688 25.51721191 0.04486084 C29.65966304 0.05509287 33.80211996 0.05965832 37.94458008 0.06469727 C46.07154964 0.07541989 54.19849009 0.09248632 62.32543945 0.11352539 C59.60885757 2.94311068 56.75044711 4.88524509 53.38793945 6.92602539 C52.34766602 7.5718457 51.30739258 8.21766602 50.2355957 8.88305664 C47.32543945 10.11352539 47.32543945 10.11352539 45.1496582 9.44165039 C44.54766602 9.00336914 43.94567383 8.56508789 43.32543945 8.11352539 C37.004683 4.1022761 32.32579799 2.5420456 24.82543945 3.61352539 C17.4545667 6.77247086 12.99561418 11.50241866 10.0168457 18.90258789 C7.09248371 28.25393754 7.35820049 38.12012277 11.32543945 47.11352539 C14.39683569 52.5024297 18.21268627 57.2773752 24.32543945 59.11352539 C30.49392766 59.81489869 35.49188618 59.25506477 41.32543945 57.11352539 C43.39115574 59.1520214 45.4530321 61.19417289 47.51293945 63.23852539 C48.38015625 64.09317383 48.38015625 64.09317383 49.26489258 64.96508789 C50.97194131 66.66249228 52.64952986 68.38543959 54.32543945 70.11352539 C54.83341064 70.60216064 55.34138184 71.0907959 55.86474609 71.59423828 C58.62521312 74.4638956 59.31764963 76.02573673 59.6730957 80.03149414 C59.59663119 81.45579084 59.50087752 82.87915588 59.38793945 84.30102539 C59.04686518 93.01768124 60.30389397 100.33168852 65.57543945 107.55102539 C69.96527363 111.6415527 74.33040153 114.32070925 80.45043945 114.42602539 C84.22915345 114.26467783 84.22915345 114.26467783 87.32543945 113.17602539 C91.71718259 113.08453074 93.60498794 115.32660691 96.78637695 118.15649414 C98.32543945 120.11352539 98.32543945 120.11352539 98.32543945 124.11352539 C96.45043945 126.86352539 96.45043945 126.86352539 94.32543945 129.11352539 C93.66543945 129.11352539 93.00543945 129.11352539 92.32543945 129.11352539 C91.26247385 131.22970463 90.2106936 133.35004235 89.17700195 135.48071289 C82.89244976 148.33002024 82.89244976 148.33002024 79.32543945 150.11352539 C76.61166498 155.96047218 76.03290317 160.18991519 76.5871582 166.53149414 C77.9486575 191.45726747 77.9486575 191.45726747 73.21264648 198.05834961 C68.08494692 202.4268076 62.26171801 205.0662323 55.89672852 207.16674805 C53.1300401 208.18547361 50.80594744 209.53070911 48.32543945 211.11352539 C47.80594727 210.63141602 47.28645508 210.14930664 46.7512207 209.65258789 C46.05383789 209.02094727 45.35645508 208.38930664 44.63793945 207.73852539 C43.95344727 207.11204102 43.26895508 206.48555664 42.5637207 205.84008789 C36.70092136 201.3176493 30.45195333 201.39808658 23.32543945 202.11352539 C16.22933267 203.92711014 11.42103589 209.28343024 7.32543945 215.11352539 C1.40200528 226.61898542 0.54868791 239.27124849 4.41918945 251.61743164 C7.51920087 260.15582516 11.61557148 266.25066446 19.51293945 271.05102539 C27.39690137 273.2481951 34.12656501 273.07290633 41.32543945 269.11352539 C44.99877201 270.34049421 47.01859233 272.74207296 49.51293945 275.61352539 C50.29024414 276.49911133 51.06754883 277.38469727 51.8684082 278.29711914 C52.67922852 279.2265332 53.49004883 280.15594727 54.32543945 281.11352539 C55.98888989 282.97057802 57.6554153 284.82488219 59.32543945 286.67602539 C60.06793945 287.50231445 60.81043945 288.32860352 61.57543945 289.17993164 C62.47484551 290.17369503 63.37767975 291.16576568 64.32543945 292.11352539 C64.36385734 293.45159228 64.33721789 294.7916521 64.2824707 296.12915039 C63.87913319 309.93745008 64.46647103 323.34449834 74.32543945 334.11352539 C80.25026833 338.98734115 85.33084712 341.53164049 93.11450195 341.38696289 C99.77338437 340.5634262 105.24791427 337.08897105 109.75512695 332.24633789 C117.77774105 321.34995158 118.36971186 309.11693866 117.32543945 296.11352539 C116.48352669 292.11443979 115.21025573 288.72916969 113.32543945 285.11352539 C112.95161133 284.3671582 112.5777832 283.62079102 112.19262695 282.85180664 C108.85516151 276.87310198 104.58038975 273.56786488 98.38793945 270.80102539 C90.94354822 269.12983552 86.19827649 270.31779507 79.32543945 273.11352539 C76.32543945 273.11352539 76.32543945 273.11352539 73.87231445 270.76977539 C72.93141802 269.72538035 71.99959174 268.67276551 71.07543945 267.61352539 C70.58817383 267.06760742 70.1009082 266.52168945 69.59887695 265.95922852 C68.16656969 264.35072473 66.74545522 262.73287767 65.32543945 261.11352539 C64.6087207 260.30915039 63.89200195 259.50477539 63.15356445 258.67602539 C61.52353285 256.83701537 59.90199783 254.99854084 58.32543945 253.11352539 C57.76985352 252.52958008 57.21426758 251.94563477 56.6418457 251.34399414 C54.1639464 247.14553568 55.00744171 242.50297736 55.8918457 237.88305664 C57.3932679 232.78075523 61.15923173 230.53511992 65.57617188 228.06420898 C66.85169484 227.39137347 68.13447495 226.73211956 69.42407227 226.08666992 C71.2852686 225.13408536 73.06383545 224.1035814 74.84887695 223.01586914 C82.89924661 218.11352539 82.89924661 218.11352539 85.32543945 218.11352539 C85.32543945 219.43352539 85.32543945 220.75352539 85.32543945 222.11352539 C85.92356445 222.36102539 86.52168945 222.60852539 87.13793945 222.86352539 C89.64170864 224.29425064 90.80616333 225.6826836 92.32543945 228.11352539 C92.32543945 228.77352539 92.32543945 229.43352539 92.32543945 230.11352539 C92.98543945 230.11352539 93.64543945 230.11352539 94.32543945 230.11352539 C95.4387207 231.68774414 95.4387207 231.68774414 96.63793945 233.80102539 C99.70804636 238.88505082 103.23314375 242.41273836 108.13793945 245.73852539 C109.18981445 246.52227539 110.24168945 247.30602539 111.32543945 248.11352539 C111.32543945 249.10352539 111.32543945 250.09352539 111.32543945 251.11352539 C112.31543945 251.11352539 113.30543945 251.11352539 114.32543945 251.11352539 C114.32543945 251.77352539 114.32543945 252.43352539 114.32543945 253.11352539 C115.02668945 253.19602539 115.72793945 253.27852539 116.45043945 253.36352539 C120.01578465 254.29361544 122.41559517 255.88038908 125.32543945 258.11352539 C125.32543945 258.77352539 125.32543945 259.43352539 125.32543945 260.11352539 C127.21262695 260.45577148 127.21262695 260.45577148 129.13793945 260.80493164 C134.92023609 262.09303338 140.01515364 264.47757919 145.32543945 267.05102539 C146.27805664 267.49381836 147.23067383 267.93661133 148.2121582 268.39282227 C149.11579102 268.82530273 150.01942383 269.2577832 150.95043945 269.70336914 C151.76770508 270.09387451 152.5849707 270.48437988 153.42700195 270.88671875 C155.32543945 272.11352539 155.32543945 272.11352539 156.32543945 275.11352539 C157.41211914 275.27788086 157.41211914 275.27788086 158.52075195 275.44555664 C159.48754883 275.60411133 160.4543457 275.76266602 161.45043945 275.92602539 C162.87743164 276.15225586 162.87743164 276.15225586 164.33325195 276.38305664 C167.32543945 277.11352539 167.32543945 277.11352539 170.2668457 278.59790039 C173.58785981 280.24356256 176.49889021 280.8934643 180.13793945 281.55102539 C182.53519701 282.0652636 184.93114783 282.58565007 187.32543945 283.11352539 C188.62674805 283.36875977 188.62674805 283.36875977 189.9543457 283.62915039 C194.27698239 284.92218258 196.32120599 286.83053701 198.54418945 290.68383789 C200.67933631 294.73814853 202.53937477 298.89591676 204.32543945 303.11352539 C204.90093336 304.45077656 205.47645236 305.78801693 206.05200195 307.12524414 C206.47223633 308.11137695 206.8924707 309.09750977 207.32543945 310.11352539 C206.7943457 310.52602539 206.26325195 310.93852539 205.71606445 311.36352539 C204.65645508 312.22977539 204.65645508 312.22977539 203.57543945 313.11352539 C202.8793457 313.67040039 202.18325195 314.22727539 201.46606445 314.80102539 C198.61134314 317.8849579 197.04136275 321.30754748 195.32543945 325.11352539 C192.07475792 325.00337833 188.82520618 324.87281327 185.57543945 324.73852539 C184.65504883 324.70758789 183.7346582 324.67665039 182.78637695 324.64477539 C181.89692383 324.60610352 181.0074707 324.56743164 180.09106445 324.52758789 C178.86564941 324.48045654 178.86564941 324.48045654 177.61547852 324.43237305 C175.12434635 324.08552671 173.4621581 323.42604315 171.32543945 322.11352539 C170.3059082 320.34399414 170.3059082 320.34399414 169.51293945 318.30102539 C167.0780486 313.0806952 163.69671725 310.48955714 158.41137695 308.33227539 C152.03522183 306.40164675 145.52855954 306.71470066 139.57543945 309.80102539 C134.30498776 313.55115448 130.61007705 317.56187366 129.32543945 324.11352539 C129.2380356 330.1771676 130.34478666 334.37977613 134.32543945 339.11352539 C139.11490858 343.79656187 143.16676817 346.00769094 149.93481445 346.17993164 C156.38709092 345.88583617 161.51702896 344.59383258 166.32543945 340.11352539 C166.99406593 338.83350894 167.64013945 337.54145426 168.26293945 336.23852539 C169.38793945 334.43383789 169.38793945 334.43383789 171.32543945 333.11352539 C176.40389336 332.77564438 181.29093849 333.14802567 186.32641602 333.84643555 C188.11284614 334.08512076 189.9133389 334.2124257 191.7121582 334.32446289 C194.32543945 335.11352539 194.32543945 335.11352539 195.72387695 337.59008789 C196.04614258 338.62907227 196.3684082 339.66805664 196.70043945 340.73852539 C198.97694677 346.99332253 201.93723974 350.31638217 207.32543945 354.11352539 C205.05108742 361.29568972 202.28959764 368.18934559 199.32543945 375.11352539 C197.40486654 375.08097331 195.48429362 375.04842122 193.5637207 375.01586914 C191.30462265 375.05034541 191.30462265 375.05034541 189.0637207 375.60961914 C185.43974553 376.27651329 181.87057167 376.25858076 178.20043945 376.23852539 C177.12729492 376.24432617 177.12729492 376.24432617 176.0324707 376.25024414 C172.86408961 376.24432193 170.352338 376.12249157 167.32543945 375.11352539 C165.78563463 374.98473131 164.24335835 374.88462007 162.70043945 374.80102539 C149.70141078 373.64404378 137.75456692 369.81408235 125.72045898 364.93164062 C120.91519775 362.99920123 116.30336618 361.5138543 111.20507812 360.56738281 C108.58936761 359.93579354 106.59596398 358.52493253 104.32543945 357.11352539 C103.31481445 356.96915039 102.30418945 356.82477539 101.26293945 356.67602539 C97.69616875 355.99302675 96.72241329 354.75019662 94.32543945 352.11352539 C92.99976747 351.43175123 91.66790257 350.76161103 90.32543945 350.11352539 C89.99543945 349.45352539 89.66543945 348.79352539 89.32543945 348.11352539 C87.44280064 347.21008855 87.44280064 347.21008855 85.26293945 346.48852539 C84.16272461 346.09793945 84.16272461 346.09793945 83.0402832 345.69946289 C82.47438477 345.50610352 81.90848633 345.31274414 81.32543945 345.11352539 C81.32543945 344.45352539 81.32543945 343.79352539 81.32543945 343.11352539 C79.34543945 342.78352539 77.36543945 342.45352539 75.32543945 342.11352539 C75.32543945 353.00352539 75.32543945 363.89352539 75.32543945 375.11352539 C68.03587909 373.65561332 61.0091518 372.14815749 53.88793945 370.11352539 C52.90889648 369.8724707 51.92985352 369.63141602 50.92114258 369.38305664 C48.06127564 368.54573477 45.80182175 367.77725206 43.32543945 366.11352539 C41.97671621 363.54168882 41.34757758 361.29129513 40.82397461 358.44116211 C39.90266581 354.13961552 37.03298823 352.22379852 33.50512695 349.92993164 C28.89589483 347.31803344 24.63130576 346.13612897 19.32543945 347.11352539 C12.98322995 349.00767521 8.97113212 351.58974862 5.32543945 357.11352539 C2.58360283 363.11945324 2.49179879 368.65428543 4.57543945 374.80102539 C7.24773983 379.85930825 8.98487394 382.69961516 14.45043945 384.48852539 C16.55200195 385.42993164 16.55200195 385.42993164 18.32543945 387.11352539 C20.37137017 394.22438215 20.60036294 401.74557606 20.32543945 409.11352539 C18.95043945 411.05102539 18.95043945 411.05102539 17.32543945 412.11352539 C16.66543945 412.11352539 16.00543945 412.11352539 15.32543945 412.11352539 C11.56281232 419.42518073 9.14737489 425.91198573 11.32543945 434.11352539 C13.41459096 439.7372954 17.05394871 443.31593601 22.32543945 446.11352539 C28.51877215 448.00795657 33.63897682 447.72223011 39.51293945 445.11352539 C44.48635676 442.38197158 47.31252218 439.43470948 49.32543945 434.11352539 C51.07123852 427.76422044 50.52441456 422.38280073 47.84106445 416.38305664 C44.79163674 411.81677443 40.12725189 409.51443161 35.32543945 407.11352539 C34.33426128 403.77105464 33.91589191 400.30550113 33.38793945 396.86352539 C33.21198242 395.90833008 33.03602539 394.95313477 32.85473633 393.96899414 C31.76919424 386.90560265 31.76919424 386.90560265 34.5090332 383.00415039 C37.06902983 381.28565057 38.37393726 380.58355888 41.32543945 380.11352539 C44.06838514 380.7749137 46.66348069 381.51242822 49.3371582 382.38696289 C50.10598831 382.63016266 50.87481842 382.87336243 51.66694641 383.12393188 C53.28811936 383.63878575 54.90774097 384.15854668 56.52587891 384.68286133 C59.01117685 385.48795441 61.50071459 386.27857509 63.99145508 387.06665039 C65.56528892 387.56842058 67.138866 388.07099697 68.7121582 388.57446289 C69.46003098 388.81305023 70.20790375 389.05163757 70.97843933 389.29745483 C76.20792448 390.99601042 76.20792448 390.99601042 77.32543945 392.11352539 C77.47168107 394.17296918 77.55285782 396.23709771 77.60668945 398.30102539 C77.66276367 400.1843457 77.66276367 400.1843457 77.7199707 402.10571289 C77.77364506 404.11382342 77.82565832 406.12197316 77.87768555 408.13012695 C77.92932752 410.06220011 77.98666861 411.99411832 78.04418945 413.92602539 C78.07448242 415.0874707 78.10477539 416.24891602 78.13598633 417.44555664 C78.02691982 420.03342076 78.02691982 420.03342076 79.32543945 421.11352539 C81.18168945 421.48477539 81.18168945 421.48477539 83.07543945 421.86352539 C87.15624961 422.71855228 90.83858663 424.04666386 94.70043945 425.61352539 C99.87425921 427.68305329 104.77104164 428.95826559 110.27856445 429.75415039 C112.32543945 430.11352539 112.32543945 430.11352539 113.32543945 431.11352539 C115.67531207 431.34880312 118.03099984 431.52738956 120.38793945 431.67602539 C121.67829102 431.75981445 122.96864258 431.84360352 124.2980957 431.92993164 C125.29711914 431.99051758 126.29614258 432.05110352 127.32543945 432.11352539 C127.32543945 432.77352539 127.32543945 433.43352539 127.32543945 434.11352539 C128.65720215 434.24198853 128.65720215 434.24198853 130.01586914 434.37304688 C133.31852093 434.6930696 136.62088601 435.01579147 139.9230957 435.34033203 C141.35072486 435.48008293 142.77845899 435.61876593 144.20629883 435.75634766 C146.26192481 435.95460963 148.31713923 436.15674434 150.37231445 436.35961914 C151.60820312 436.48006592 152.8440918 436.6005127 154.11743164 436.72460938 C157.32543945 437.11352539 157.32543945 437.11352539 159.41113281 437.64086914 C164.1495892 438.81082853 169.28273327 438.52343678 174.13793945 438.67602539 C175.4444043 438.71775879 176.75086914 438.75949219 178.09692383 438.80249023 C217.07842299 440.39714648 217.07842299 440.39714648 255.86450195 437.60571289 C259.81613336 437.04374274 263.71710582 436.85151053 267.70043945 436.67602539 C273.02522101 436.40664737 278.0162497 435.95179931 283.1887207 434.59008789 C287.4973291 433.62911856 291.92977289 433.42574096 296.32543945 433.11352539 C296.56956275 436.34456904 296.44905766 439.05506687 295.32543945 442.11352539 C292.93608697 443.94781959 290.44831619 445.20986247 287.7824707 446.60571289 C283.88271396 448.99888635 282.39668417 451.73047483 281.32543945 456.11352539 C280.35266591 463.20235391 280.97034685 469.29400107 285.32543945 475.11352539 C290.33971345 480.44861787 294.8817288 483.15060708 302.26293945 483.42602539 C308.37582988 483.27184269 311.76471332 481.70972257 316.07543945 477.30102539 C319.79324968 472.03412757 320.96789669 467.53809773 320.32543945 461.11352539 C318.92680657 456.0434812 317.57600113 451.62100973 313.07543945 448.61352539 C310.32543945 446.11352539 310.32543945 446.11352539 309.9074707 443.91040039 C309.88728441 441.27810727 310.07318689 438.73307128 310.32543945 436.11352539 C310.3428418 434.85475586 310.3428418 434.85475586 310.3605957 433.57055664 C310.4473013 431.25966398 310.61786871 429.31537382 311.32543945 427.11352539 C315.28418283 424.09733996 319.41785728 423.43048441 324.32543945 423.11352539 C327.0715332 424.37915039 327.0715332 424.37915039 329.76293945 426.36352539 C331.29047852 427.45793945 331.29047852 427.45793945 332.84887695 428.57446289 C333.39898437 428.97890625 333.9490918 429.38334961 334.51586914 429.80004883 C337.92067859 432.27142967 341.41383785 434.61612158 344.88793945 436.98852539 C346.82844964 438.32549731 348.76769974 439.66427452 350.70654297 441.00366211 C352.23741418 442.0531781 353.78108362 443.08395483 355.32543945 444.11352539 C355.88012695 446.65258789 355.88012695 446.65258789 356.20043945 449.73852539 C357.24194611 456.91717455 359.59499901 461.45309624 364.76293945 466.48852539 C369.93644428 469.76928455 375.22544211 471.03880589 381.32543945 470.11352539 C387.66839935 467.97998433 391.31881918 464.72544188 394.57543945 458.86352539 C396.39798136 452.18087172 395.71288662 446.39531287 392.6652832 440.19165039 C389.72621795 435.6331002 385.3668446 432.11364809 380.32543945 430.11352539 C377.41300989 429.79757739 377.41300989 429.79757739 374.32543945 429.86352539 C373.29418945 429.85836914 372.26293945 429.85321289 371.20043945 429.84790039 C368.35911734 429.9323391 368.35911734 429.9323391 366.20043945 431.19165039 C364.32543945 432.11352539 364.32543945 432.11352539 362.50610352 431.86865234 C359.82654736 430.94076753 357.87057171 429.5975618 355.55981445 427.95336914 C354.22563477 427.01074219 354.22563477 427.01074219 352.86450195 426.04907227 C351.94411133 425.3897168 351.0237207 424.73036133 350.07543945 424.05102539 C348.67165039 423.05619141 348.67165039 423.05619141 347.23950195 422.04125977 C344.93091719 420.40404914 342.62646924 418.76132896 340.32543945 417.11352539 C342.38976124 414.98514593 344.18196963 413.52674572 346.82543945 412.17602539 C349.81923957 410.54704591 351.33617436 408.89849652 353.32543945 406.11352539 C354.31543945 406.11352539 355.30543945 406.11352539 356.32543945 406.11352539 C356.32543945 405.45352539 356.32543945 404.79352539 356.32543945 404.11352539 C359.32543945 402.11352539 359.32543945 402.11352539 362.2121582 401.25805664 C365.73076776 399.96451511 367.51873513 398.45592585 370.13793945 395.80102539 C370.90750977 395.04176758 371.67708008 394.28250977 372.4699707 393.50024414 C374.45425285 390.94783068 374.98231671 389.29162949 375.32543945 386.11352539 C375.98543945 386.11352539 376.64543945 386.11352539 377.32543945 386.11352539 C377.32543945 384.79352539 377.32543945 383.47352539 377.32543945 382.11352539 C378.63338276 380.75527657 379.97444842 379.42896402 381.32543945 378.11352539 C387.15071732 370.15890313 390.71717572 363.42435629 391.51293945 353.55102539 C391.59261963 352.64368652 391.6722998 351.73634766 391.75439453 350.80151367 C393.56261161 334.27856127 393.56261161 334.27856127 391.32543945 318.11352539 C391.19762159 315.43957575 391.28152074 312.79256682 391.32543945 310.11352539 C393.83577015 310.51773118 396.33228311 310.96107137 398.8293457 311.44165039 C400.6665282 311.79471787 402.50525736 312.1424626 404.35229492 312.43969727 C417.16885782 314.52426573 417.16885782 314.52426573 419.9543457 318.35180664 C420.82543945 320.92602539 420.82543945 320.92602539 421.4855957 323.57055664 C422.95408923 328.01701844 426.50047062 330.60628325 430.32543945 333.11352539 C436.33781687 336.04112093 443.29184755 336.27731584 449.70825195 334.42602539 C455.92081858 331.59139423 459.73167534 327.15560208 462.20043945 320.80102539 C464.05771755 314.47566683 463.33347135 308.92158719 460.70043945 302.92602539 C457.8374718 297.72911672 453.80439644 294.32545992 448.51293945 291.73852539 C441.20959652 290.30649737 434.93527538 290.37210883 428.32543945 294.11352539 C427.24970123 295.17051728 426.18372082 296.23750552 425.1262207 297.31274414 C422.11844595 299.91534487 421.67054309 300.12359381 417.44262695 300.00024414 C416.01869125 299.63724058 414.60438549 299.23496088 413.20043945 298.80102539 C411.62128611 298.37552898 410.04184588 297.95109623 408.4621582 297.52758789 C407.63377441 297.29330078 406.80539062 297.05901367 405.9519043 296.81762695 C403.20126093 296.08023567 400.44450981 295.47105867 397.6574707 294.88696289 C396.24715576 294.58399292 396.24715576 294.58399292 394.80834961 294.27490234 C392.98068533 293.88335121 391.1509598 293.50127023 389.3190918 293.12988281 C383.91233441 291.90814863 380.95810404 290.54720306 377.32543945 286.11352539 C376.66543945 285.45352539 376.00543945 284.79352539 375.32543945 284.11352539 C375.32543945 283.12352539 375.32543945 282.13352539 375.32543945 281.11352539 C374.76856445 281.07227539 374.21168945 281.03102539 373.63793945 280.98852539 C370.73268187 279.88923874 369.6788281 278.08599808 367.8293457 275.67993164 C365.18950204 272.93038019 361.79539019 271.57727632 358.32543945 270.11352539 C358.32543945 269.45352539 358.32543945 268.79352539 358.32543945 268.11352539 C356.23384301 266.9930273 354.56351018 266.14853579 352.20043945 265.80102539 C351.58168945 265.57415039 350.96293945 265.34727539 350.32543945 265.11352539 C349.65102814 263.44997749 348.98540736 261.78285597 348.32543945 260.11352539 C344.72112355 256.80518434 340.96484807 254.84215144 336.51293945 252.86352539 C335.35149414 252.34274414 334.19004883 251.82196289 332.9934082 251.28540039 C331.67276367 250.70532227 331.67276367 250.70532227 330.32543945 250.11352539 C330.32543945 249.45352539 330.32543945 248.79352539 330.32543945 248.11352539 C329.33543945 248.11352539 328.34543945 248.11352539 327.32543945 248.11352539 C327.32543945 247.45352539 327.32543945 246.79352539 327.32543945 246.11352539 C324.68543945 246.11352539 322.04543945 246.11352539 319.32543945 246.11352539 C319.65543945 243.14352539 319.98543945 240.17352539 320.32543945 237.11352539 C323.38368844 236.07810253 326.4459483 235.05993349 329.51293945 234.05102539 C330.80941406 233.60919922 330.80941406 233.60919922 332.13208008 233.15844727 C332.97319336 232.88452148 333.81430664 232.6105957 334.6809082 232.32836914 C335.45072021 232.07176514 336.22053223 231.81516113 337.01367188 231.55078125 C341.1553212 230.76741511 344.40157902 231.91331648 347.88793945 234.11352539 C353.83328587 237.57263603 359.53609749 237.7708614 366.32543945 237.11352539 C370.83208373 235.87289032 374.17859791 233.88961938 376.82543945 229.98852539 C379.2937911 224.84245299 379.28493506 219.32130655 377.6652832 213.90649414 C374.83621129 207.50127938 369.99954484 203.08207042 363.63793945 200.23852539 C356.96941402 198.07611035 349.31176546 197.86851115 342.82543945 200.67602539 C338.96397179 202.95597719 336.73920124 205.87224004 335.32543945 210.11352539 C334.95257704 212.44086919 334.61331967 214.77414929 334.32543945 217.11352539 C331.45559522 218.15136214 328.58106066 219.16892449 325.70043945 220.17602539 C324.48807617 220.61785156 324.48807617 220.61785156 323.2512207 221.06860352 C317.30230791 223.12412216 313.50167872 223.313438 307.51293945 221.05102539 C304.35746782 218.25617908 304.62316375 215.10466393 304.32543945 211.11352539 C304.16376369 208.37431491 304.07429839 205.63784012 304.0090332 202.89477539 C303.98825211 202.15142944 303.96747101 201.4080835 303.94606018 200.64221191 C303.88138817 198.29939791 303.82206854 195.95648515 303.76293945 193.61352539 C303.71967562 192.01195324 303.67605902 190.41039057 303.63208008 188.80883789 C303.52579309 184.91049806 303.42430152 181.01206029 303.32543945 177.11352539 C303.87466064 176.85595459 304.42388184 176.59838379 304.98974609 176.33300781 C305.71025146 175.9860083 306.43075684 175.63900879 307.1730957 175.28149414 C307.88731689 174.94142334 308.60153809 174.60135254 309.33740234 174.25097656 C312.53058033 172.42400662 313.77073529 170.40949821 315.32543945 167.11352539 C316.96667446 160.97029158 316.49506631 155.67295027 313.32543945 150.11352539 C312.7943457 149.58500977 312.26325195 149.05649414 311.71606445 148.51196289 C310.32543945 147.11352539 310.32543945 147.11352539 310.32543945 145.11352539 C309.00543945 144.45352539 307.68543945 143.79352539 306.32543945 143.11352539 C309.40847937 142.15193135 311.5832567 142.12578382 314.74731445 142.71508789 C316.02638672 142.95171143 316.02638672 142.95171143 317.33129883 143.19311523 C318.23686523 143.37310059 319.14243164 143.55308594 320.07543945 143.73852539 C321.01194336 143.92237793 321.94844727 144.10623047 322.91333008 144.2956543 C335.09990049 146.77741156 346.17871975 150.37987643 357.39575195 155.82055664 C361.33801881 157.56041042 365.0874522 158.39522247 369.32543945 159.11352539 C369.32543945 159.77352539 369.32543945 160.43352539 369.32543945 161.11352539 C370.31543945 161.11352539 371.30543945 161.11352539 372.32543945 161.11352539 C372.32321884 160.28889297 372.32099823 159.46426056 372.31871033 158.61463928 C372.29870894 150.85954282 372.2834661 143.10445879 372.27362728 135.3493433 C372.26839909 131.36195339 372.26130261 127.37458472 372.25 123.38720703 C372.23916884 119.54227425 372.23316213 115.69736194 372.23056221 111.85241508 C372.22870837 110.38233556 372.22508855 108.91225721 372.2197094 107.44218636 C372.2124959 105.38998072 372.21144864 103.33786072 372.21191406 101.28564453 C372.20969345 100.11538223 372.20747284 98.94511993 372.20518494 97.73939514 C372.32543945 95.11352539 372.32543945 95.11352539 373.32543945 94.11352539 C378.50380518 92.76315791 382.7470749 93.61095249 387.3371582 96.20336914 C391.42777695 98.70091365 395.38604487 101.38564364 399.32543945 104.11352539 C406.929232 109.30404799 413.08450363 110.98784974 422.32543945 110.11352539 C427.0356791 108.90735187 430.75205467 106.37161152 434.32543945 103.11352539 C434.65543945 102.45352539 434.98543945 101.79352539 435.32543945 101.11352539 C435.89391602 101.14833008 436.46239258 101.18313477 437.0480957 101.21899414 C442.52623785 101.41104921 446.44114695 100.89086819 451.32543945 98.11352539 C454.72859298 94.53125852 456.15288799 91.87355031 456.63793945 86.92602539 C456.25136896 82.20986535 455.11179768 78.93647523 452.32543945 75.11352539 C447.38717497 71.08228908 443.23835423 70.47527158 436.9152832 70.72680664 C432.13661675 71.44036317 429.55462683 73.72044636 426.45043945 77.23852539 C424.2585126 82.84011624 424.5447086 88.22675917 426.82543945 93.73852539 C427.32043945 94.52227539 427.81543945 95.30602539 428.32543945 96.11352539 C424.42407006 100.22577962 422.42396514 101.89643653 416.70043945 102.48852539 C411.33467477 102.38159892 407.73754572 99.96764755 403.32543945 97.11352539 C402.76953125 96.75452148 402.21362305 96.39551758 401.64086914 96.02563477 C400.73836426 95.44265625 400.73836426 95.44265625 399.81762695 94.84790039 C399.20032715 94.44949951 398.58302734 94.05109863 397.94702148 93.640625 C396.72238799 92.84587525 395.50181023 92.04483195 394.28588867 91.23681641 C388.82488131 87.64583717 383.60128656 85.83630695 377.32543945 84.11352539 C378.4275485 82.36222882 379.53221377 80.61254075 380.63793945 78.86352539 C381.56026367 77.40172852 381.56026367 77.40172852 382.5012207 75.91040039 C383.10321289 74.98743164 383.70520508 74.06446289 384.32543945 73.11352539 C384.82946289 72.33750977 385.33348633 71.56149414 385.8527832 70.76196289 C386.33875977 70.21797852 386.82473633 69.67399414 387.32543945 69.11352539 C389.65704886 69.02384811 391.99340134 69.03579079 394.32543945 69.11352539 C399.86935274 68.06209356 402.67020379 66.41380265 406.32543945 62.11352539 C408.30105186 58.16230058 407.7579264 53.42012074 407.32543945 49.11352539 C405.01799414 44.23239107 402.1220575 41.55708553 397.32543945 39.11352539 C392.44644778 37.71047584 388.59201001 37.64235379 383.95043945 39.80102539 C379.78406063 42.20311259 377.85203685 44.5337332 376.32543945 49.11352539 C375.91943472 54.49308806 376.90713619 57.38206248 379.32543945 62.11352539 C378.90649643 65.41312406 377.47953996 67.68125166 375.63793945 70.40649414 C375.10426758 71.20120117 374.5705957 71.9959082 374.02075195 72.81469727 C373.46129883 73.63518555 372.9018457 74.45567383 372.32543945 75.30102539 C371.48625977 76.54916016 371.48625977 76.54916016 370.63012695 77.82250977 C366.50812272 83.93084212 366.50812272 83.93084212 365.32543945 85.11352539 C363.51515445 85.21232104 361.70091219 85.24324053 359.88793945 85.23852539 C358.89922852 85.24110352 357.91051758 85.24368164 356.8918457 85.24633789 C354.32543945 85.11352539 354.32543945 85.11352539 352.32543945 84.11352539 C350.22572103 83.79139286 348.1203483 83.50576077 346.01293945 83.23852539 C341.36713266 82.60969902 336.91834919 81.80955356 332.38793945 80.61352539 C325.07438787 78.81689609 317.68445266 78.31784316 310.19482422 77.76000977 C309.23632568 77.6884668 308.27782715 77.61692383 307.2902832 77.54321289 C306.43039795 77.48375488 305.5705127 77.42429687 304.68457031 77.36303711 C302.32543945 77.11352539 302.32543945 77.11352539 300.37329102 76.61962891 C290.39833652 74.15443092 279.27110567 74.84500723 269.01293945 74.55102539 C267.5786863 74.50768124 266.14444142 74.46406288 264.71020508 74.42016602 C261.24870559 74.31480482 257.78711061 74.21310727 254.32543945 74.11352539 C253.62051053 72.89427064 252.93718044 71.66251479 252.26293945 70.42602539 C251.88008789 69.7415332 251.49723633 69.05704102 251.1027832 68.35180664 C249.13881747 62.69676964 253.12934375 56.17726677 255.32543945 50.98852539 C255.67477539 50.08231445 256.02411133 49.17610352 256.3840332 48.24243164 C259.16741538 41.74145251 259.16741538 41.74145251 262.50732422 39.93041992 C264.8918457 39.17602539 264.8918457 39.17602539 267.24780273 38.61303711 C271.93813392 37.48537347 275.28837284 33.78184994 277.76293945 29.80102539 C278.85714368 24.57316077 278.95742624 19.93926501 277.20043945 14.86352539 C274.45405524 10.83549521 271.88793143 7.92972654 267.21606445 6.44165039 C262.15997863 5.56991146 258.49603467 6.25146081 254.05200195 8.80102539 C250.4624864 11.5297069 248.72233484 14.92283922 247.32543945 19.11352539 C246.94627635 24.89576272 247.41139007 27.98479847 250.32543945 33.11352539 C251.29157688 35.64720181 251.42788645 36.78431921 250.61279297 39.40356445 C250.23050537 40.22050781 249.84821777 41.03745117 249.4543457 41.87915039 C249.04506836 42.76860352 248.63579102 43.65805664 248.21411133 44.57446289 C247.55765625 45.95504883 247.55765625 45.95504883 246.88793945 47.36352539 C246.45416992 48.29938477 246.02040039 49.23524414 245.57348633 50.19946289 C244.50119889 52.50900507 243.41466612 54.81192362 242.32543945 57.11352539 C238.69543945 56.78352539 235.06543945 56.45352539 231.32543945 56.11352539 C227.21677327 46.42312473 223.37538207 36.64241233 219.59448242 26.8203125 C218.5674843 24.15538278 217.53441341 21.49285548 216.5012207 18.83032227 C215.84329663 17.12408545 215.18573141 15.41771021 214.52856445 13.71118164 C214.06767426 12.52674217 214.06767426 12.52674217 213.59747314 11.31837463 C213.17132721 10.20582558 213.17132721 10.20582558 212.73657227 9.07080078 C212.48740051 8.42526749 212.23822876 7.77973419 211.98150635 7.11463928 C211.22512498 4.80754944 210.78579959 2.495515 210.32543945 0.11352539 C242.98060017 0.04510818 275.63574026 -0.007993 308.29095627 -0.0396706 C312.14498008 -0.04342278 315.99900375 -0.04730574 319.85302734 -0.05126953 C320.62030379 -0.05205646 321.38758023 -0.05284339 322.17810748 -0.05365417 C334.60664884 -0.06671306 347.03514864 -0.09036956 359.46366533 -0.117933 C372.21361679 -0.14597377 384.96354647 -0.16264805 397.7135275 -0.16874009 C405.58286469 -0.1728593 413.45208439 -0.18587598 421.32138542 -0.21022401 C427.35252442 -0.22793568 433.38356205 -0.22984359 439.41473007 -0.22579765 C441.89113782 -0.2266249 444.36754989 -0.23261764 446.8439312 -0.24409103 C450.21860387 -0.2589631 453.59276919 -0.2554472 456.967453 -0.24723816 C457.95286251 -0.25597668 458.93827201 -0.26471521 459.95354241 -0.27371854 C466.00991436 -0.23375381 469.39461989 0.60139433 474.07543945 4.61352539 C476.51555514 7.54166421 476.46816391 10.53836452 476.5286541 14.17810154 C476.54817092 15.22650923 476.56768774 16.27491693 476.58779597 17.35509455 C476.60409155 18.50550994 476.62038713 19.65592532 476.63717651 20.84120178 C476.65764014 22.05214331 476.67810378 23.26308484 476.69918752 24.51072156 C476.75364019 27.84793248 476.803298 31.18513866 476.84991351 34.5224636 C476.87980738 36.64135238 476.91128814 38.76021244 476.94316077 40.87907231 C477.39714944 71.31062732 477.47456377 101.73997041 477.46073986 132.17438644 C477.45839222 137.49071497 477.45819488 142.80704031 477.45925522 148.12336922 C477.45940845 148.90122795 477.45956168 149.67908669 477.45971956 150.4805169 C477.46003955 152.06485335 477.46036377 153.64918979 477.46069215 155.23352624 C477.46350487 169.89832238 477.46033243 184.56311215 477.45489179 199.22790725 C477.45047185 211.51440891 477.45122833 223.80090088 477.45581055 236.08740234 C477.47843661 298.99249292 477.48376776 361.89916509 477.05343246 424.80308723 C477.02012561 429.7004289 476.99323915 434.59773652 476.97217178 439.4951458 C476.94746037 445.10868517 476.90843777 450.7219315 476.85739374 456.33529162 C476.84118152 458.36472036 476.82991917 460.39419567 476.82400274 462.42368054 C476.81506393 465.16742564 476.78789482 467.91038798 476.75582886 470.65394592 C476.75746037 471.44710109 476.75909188 472.24025625 476.76077282 473.05744642 C476.6671041 478.60048165 475.37798797 481.71888545 471.82543945 485.86352539 C468.26370456 488.8316378 463.93600701 488.25524368 459.56762886 488.24495316 C458.76537618 488.24700579 457.96312351 488.24905842 457.13656014 488.25117326 C454.42550776 488.25686584 451.71450582 488.25538324 449.00344849 488.25396729 C447.04926681 488.25654962 445.09508567 488.25956241 443.14090526 488.26297069 C437.75298775 488.27105927 432.36508355 488.27283129 426.97716069 488.27356815 C421.17337894 488.27541546 415.36960416 488.2829611 409.56582642 488.28970337 C396.86772714 488.30329985 384.16963101 488.3093133 371.47152567 488.31371403 C363.54809279 488.31647392 355.62466114 488.32071078 347.7012291 488.3252182 C325.77826323 488.337412 303.85529837 488.34774688 281.93232918 488.35109329 C280.51436498 488.35131493 279.09640077 488.35153671 277.67843657 488.35175864 C276.25701864 488.35197929 274.83560071 488.35219977 273.41418278 488.35242009 C270.56249881 488.35286265 267.71081483 488.35330976 264.85913086 488.35375977 C263.79855139 488.35392385 263.79855139 488.35392385 262.71654606 488.35409125 C239.78167188 488.35772324 216.84682927 488.37364866 193.91196718 488.39695013 C169.67314027 488.42153147 145.43433142 488.43526532 121.19549167 488.43646121 C107.97873067 488.43737934 94.76201102 488.44316645 81.54526138 488.46128082 C70.29346761 488.47664742 59.04172797 488.48182264 47.78992571 488.47354272 C42.04558878 488.46962414 36.30136099 488.47062451 30.55703735 488.48460007 C25.30286384 488.49726665 20.04888228 488.49620563 14.79470931 488.48400936 C12.88960641 488.48203974 10.98449025 488.48518856 9.07940604 488.49385372 C6.49767877 488.50485705 3.91663966 488.49752208 1.33493233 488.48546219 C0.21523163 488.49685498 0.21523163 488.49685498 -0.92708927 488.50847793 C-6.33343758 488.45363841 -9.38664679 487.07459433 -13.42456055 483.61352539 C-16.38108824 480.06569216 -15.81632741 475.76968718 -15.80598831 471.41818428 C-15.80804095 470.6226851 -15.81009358 469.82718592 -15.81220841 469.0075807 C-15.81790074 466.3195018 -15.81641842 463.63147378 -15.81500244 460.94338989 C-15.81758479 459.00570742 -15.82059758 457.06802547 -15.82400584 455.13034427 C-15.83209425 449.78803304 -15.83386643 444.44573522 -15.83460331 439.10341859 C-15.83645064 433.34871702 -15.8439963 427.59402248 -15.85073853 421.83932495 C-15.86433489 409.24866027 -15.87034844 396.65799877 -15.87474918 384.06732798 C-15.8775091 376.21089898 -15.88174596 368.35447122 -15.88625336 360.49804306 C-15.89844715 338.76036964 -15.90878202 317.02269755 -15.91212845 295.28502083 C-15.91235008 293.87904697 -15.91257187 292.47307312 -15.9127938 291.06709927 C-15.91301444 289.65770133 -15.91323492 288.24830339 -15.91345525 286.83890545 C-15.91389781 284.01133736 -15.91434492 281.18376927 -15.91479492 278.35620117 C-15.91490431 277.65512756 -15.9150137 276.95405395 -15.91512641 276.23173568 C-15.91875839 253.49086861 -15.93468378 230.75003339 -15.95798529 208.00917851 C-15.98256678 183.97526562 -15.99629375 159.94137171 -15.99749637 135.90744579 C-15.99841449 122.80246735 -16.00420138 109.69753061 -16.02231598 96.59256363 C-16.03768279 85.43592401 -16.04285767 74.27933899 -16.03457788 63.12269081 C-16.03065937 57.42695993 -16.03165931 51.73133912 -16.04563522 46.03562164 C-16.05830225 40.82585774 -16.05724039 35.61628741 -16.04504451 30.40652405 C-16.04307497 28.51757177 -16.04622337 26.62860611 -16.05488887 24.73967268 C-16.06589306 22.17972671 -16.05855664 19.62047466 -16.04649734 17.06054878 C-16.05409254 16.32049904 -16.06168773 15.58044929 -16.06951308 14.81797379 C-16.0144339 9.43312479 -14.62163115 6.38510776 -11.17456055 2.36352539 C-7.81999335 -0.43194728 -4.15155353 -0.00756203 0 0 Z " fill="#7EFDD3" transform="translate(59.674560546875,46.886474609375)"/>
<path d="M0 0 C1.34754433 0.00103807 2.69509171 -0.00000069 4.04263306 -0.00302124 C6.86579672 -0.00284196 9.68781611 0.01796992 12.51074219 0.05419922 C16.11791381 0.0994907 19.7234083 0.10067753 23.33078575 0.08716393 C26.1139906 0.0804577 28.89681771 0.09379499 31.67995071 0.11342239 C33.65292487 0.1248006 35.62596351 0.12226255 37.59896851 0.11947632 C44.31482315 0.22547104 48.27621075 0.42971877 53.4765625 4.7265625 C54.78065063 4.82251709 54.78065063 4.82251709 56.11108398 4.92041016 C58.4765625 5.7265625 58.4765625 5.7265625 59.49368286 7.35516357 C60.54941778 9.74749752 61.45045394 12.16029621 62.32421875 14.625 C62.66279404 15.52973053 63.00136932 16.43446106 63.35020447 17.36660767 C64.43225273 20.27159756 65.48583817 23.18601436 66.5390625 26.1015625 C67.25141078 28.02802677 67.96558353 29.95381745 68.68164062 31.87890625 C70.35331631 36.38572798 72.00100981 40.90076795 73.63800049 45.42028809 C74.37134426 47.43718362 75.11611804 49.44991575 75.86279297 51.46191406 C76.22904785 52.44901367 76.59530273 53.43611328 76.97265625 54.453125 C77.27228271 55.25572754 77.57190918 56.05833008 77.88061523 56.88525391 C78.4765625 58.7265625 78.4765625 58.7265625 78.4765625 60.7265625 C77.7134375 61.3246875 76.9503125 61.9228125 76.1640625 62.5390625 C73.44852723 64.7493819 72.09550008 66.65910182 70.4765625 69.7265625 C65.78139761 69.01629198 61.64026025 67.36223405 57.2890625 65.5390625 C56.20334961 65.12043945 56.20334961 65.12043945 55.09570312 64.69335938 C49.82535644 62.4724598 49.82535644 62.4724598 48.06640625 58.7109375 C47.77443359 57.23367187 47.77443359 57.23367187 47.4765625 55.7265625 C45.42764683 49.88715284 43.41418866 47.2240477 38.4765625 43.7265625 C34.12405743 42.27572748 29.89542495 41.87313321 25.5390625 43.41015625 C20.24719361 46.15873471 17.36962222 50.04738334 15.4765625 55.7265625 C14.95240888 61.91157518 15.53372899 66.73451559 19.4765625 71.7265625 C23.07381575 74.50448475 26.50712043 75.58807078 30.9765625 76.2265625 C34.78364371 75.68269376 37.16705527 74.52555541 40.38671875 72.50390625 C44.50753733 70.97111579 47.9979788 72.5297872 51.90625 74.13671875 C53.04320312 74.68199219 54.18015625 75.22726563 55.3515625 75.7890625 C56.50398437 76.33691406 57.65640625 76.88476562 58.84375 77.44921875 C60.14699219 78.08150391 60.14699219 78.08150391 61.4765625 78.7265625 C57.6349649 81.29436721 53.662645 80.95345132 49.2265625 80.8515625 C48.48148438 80.84253906 47.73640625 80.83351563 46.96875 80.82421875 C45.13788191 80.80074608 43.30718012 80.76487775 41.4765625 80.7265625 C41.4765625 81.3865625 41.4765625 82.0465625 41.4765625 82.7265625 C39.589375 82.819375 39.589375 82.819375 37.6640625 82.9140625 C31.6761823 83.57103995 26.83932561 86.12897412 21.4765625 88.7265625 C15.18524844 91.52816329 8.95602967 93.49090239 2.23828125 95.015625 C-0.54814057 95.66706335 -0.54814057 95.66706335 -3.19140625 96.8125 C-5.5234375 97.7265625 -5.5234375 97.7265625 -8.5234375 97.7265625 C-8.5234375 98.3865625 -8.5234375 99.0465625 -8.5234375 99.7265625 C-9.62751953 100.30664062 -9.62751953 100.30664062 -10.75390625 100.8984375 C-16.86773405 104.13197825 -16.86773405 104.13197825 -22.4609375 108.1640625 C-24.5234375 109.7265625 -24.5234375 109.7265625 -26.3984375 109.49609375 C-31.14650387 107.7766653 -33.96769441 105.06640034 -36.5234375 100.7265625 C-37.88521032 95.52573734 -38.30524081 90.15958792 -38.890625 84.828125 C-39.84422077 76.32031124 -42.15756894 68.65839456 -48.5234375 62.7265625 C-53.90534085 58.96159064 -59.02827351 57.8063251 -65.5234375 58.7265625 C-67.86569184 59.36117536 -70.20102322 60.0228006 -72.5234375 60.7265625 C-74.59246027 58.71206742 -76.65354638 56.69038191 -78.7109375 54.6640625 C-79.28908203 54.10267578 -79.86722656 53.54128906 -80.46289062 52.96289062 C-82.19204476 51.25327495 -83.86506342 49.50477132 -85.5234375 47.7265625 C-86.04373535 47.19562988 -86.5640332 46.66469727 -87.10009766 46.11767578 C-89.96858142 42.79079025 -91.06054608 39.80382277 -91.30078125 35.40234375 C-90.69411949 31.26047916 -89.77469512 29.94569852 -86.58251953 27.16162109 C-82.58430218 24.44710292 -78.34534876 22.18608902 -74.0859375 19.9140625 C-72.63142186 19.10326119 -71.17892098 18.2888344 -69.72851562 17.47070312 C-66.93981194 15.9034181 -64.14167564 14.35598856 -61.33251953 12.82568359 C-56.64686127 10.26274197 -52.06948541 7.52886397 -47.5234375 4.7265625 C-44.15429688 7.02148438 -44.15429688 7.02148438 -40.78515625 9.31640625 C-36.21918973 12.16323512 -31.75393133 12.45141834 -26.5234375 11.7265625 C-23.17695629 10.48831108 -20.28175024 8.99439133 -17.5234375 6.7265625 C-17.10022217 5.7169043 -16.67700684 4.70724609 -16.2409668 3.66699219 C-12.7857006 -1.56492201 -5.54706665 -0.07890914 0 0 Z " fill="#7EFED3" transform="translate(201.5234375,46.2734375)"/>
<path d="M0 0 C0.76554199 0.00141495 1.53108398 0.0028299 2.31982422 0.00428772 C4.73409142 0.00982772 7.14826144 0.02236846 9.5625 0.03515625 C11.21223823 0.04017902 12.86197794 0.04474056 14.51171875 0.04882812 C18.52868255 0.05977739 22.54557487 0.07699959 26.5625 0.09765625 C25.77359375 0.87496094 24.9846875 1.65226563 24.171875 2.453125 C20.15747891 6.52160726 17.9517729 10.02016415 17.4453125 15.85546875 C17.73371154 21.37350378 19.82202643 26.16845663 23.5078125 30.25390625 C26.46281467 32.91449861 28.76452112 34.83166329 32.5625 36.09765625 C33.5525 56.88765625 33.5525 56.88765625 34.5625 78.09765625 C31.9225 79.41765625 29.2825 80.73765625 26.5625 82.09765625 C24.44359061 84.37955867 22.94576731 86.33112164 21.5625 89.09765625 C19.52687795 88.64139614 17.49150337 88.18401686 15.45703125 87.72265625 C13.37780424 87.27370035 11.29056025 86.86129114 9.19921875 86.47265625 C2.60215776 85.20371337 -2.87212695 83.64377218 -8.75390625 80.41796875 C-12.01005109 78.81596445 -15.36382411 77.6968703 -18.8125 76.59765625 C-24.58363882 74.75634327 -30.14786072 72.63213442 -35.703125 70.21484375 C-38.29884364 69.15430728 -40.86755001 68.3615115 -43.5625 67.59765625 C-45.7421875 66.90625 -45.7421875 66.90625 -47.4375 66.09765625 C-48.6875 63.66015625 -48.6875 63.66015625 -49.4375 61.09765625 C-51.80850294 58.91889679 -54.14884866 57.26363077 -56.9375 55.66015625 C-62.24231559 52.34464651 -65.20615417 48.78934119 -66.921875 42.82421875 C-68.11727779 36.50307367 -69.03284993 29.54892993 -66.265625 23.5625 C-63.52270877 19.78038613 -60.25044296 16.79461591 -56.4375 14.09765625 C-55.8909375 13.67613281 -55.344375 13.25460938 -54.78125 12.8203125 C-51.10615796 10.03981523 -47.92217389 8.35336494 -43.4375 7.09765625 C-42.86257813 6.87464844 -42.28765625 6.65164062 -41.6953125 6.421875 C-33.62061797 3.35851813 -24.95215082 2.29966391 -16.4375 1.09765625 C-15.2007251 0.92129639 -13.9639502 0.74493652 -12.68969727 0.56323242 C-8.4465298 0.04040714 -4.27067826 -0.03043274 0 0 Z " fill="#7EFDD3" transform="translate(314.4375,185.90234375)"/>
<path d="M0 0 C7.2566593 2.17699779 14.82675884 4.50332198 21 9 C23.26943545 13.23040394 23 17.29572287 23 22 C21.78441406 22.34933594 20.56882812 22.69867188 19.31640625 23.05859375 C17.73172137 23.5180586 16.14708863 23.9777033 14.5625 24.4375 C13.35883789 24.78264648 13.35883789 24.78264648 12.13085938 25.13476562 C8.25946753 25.98705862 8.25946753 25.98705862 5 28 C1.36088691 28.69144885 -2.32564566 29.10015852 -6 29.5625 C-7.07894531 29.69889893 -8.15789062 29.83529785 -9.26953125 29.97583008 C-18.225215 31.04018069 -26.99626393 31.3303001 -36 31 C-35.32584579 26.63880487 -33.80372897 22.77528712 -32.0625 18.75 C-31.79759766 18.11320312 -31.53269531 17.47640625 -31.25976562 16.8203125 C-29.2458954 12.1229477 -29.2458954 12.1229477 -27 11 C-25.2675 11.061875 -25.2675 11.061875 -23.5 11.125 C-15.15851255 11.20069408 -8.32856914 8.27380762 -2 3 C-1.34 2.01 -0.68 1.02 0 0 Z " fill="#7EFCD3" transform="translate(306,394)"/>
<path d="M0 0 C7.78038996 3.68966947 15.26160913 10.1597068 18.4609375 18.3203125 C18.93600332 19.94536523 19.30703505 21.60033074 19.65234375 23.2578125 C20.31234375 23.2578125 20.97234375 23.2578125 21.65234375 23.2578125 C21.65234375 25.5678125 21.65234375 27.8778125 21.65234375 30.2578125 C21.02585937 30.45117188 20.399375 30.64453125 19.75390625 30.84375 C18.93664062 31.10414063 18.119375 31.36453125 17.27734375 31.6328125 C16.46523438 31.88804687 15.653125 32.14328125 14.81640625 32.40625 C12.4877519 33.15635533 12.4877519 33.15635533 10.65234375 35.2578125 C5.4964424 34.95947399 1.33378796 32.92496785 -3.22265625 30.6953125 C-3.91101563 30.36595703 -4.599375 30.03660156 -5.30859375 29.69726562 C-6.99152955 28.89085889 -8.67005918 28.07526756 -10.34765625 27.2578125 C-10.31285156 25.989375 -10.31285156 25.989375 -10.27734375 24.6953125 C-10.17327559 18.15388529 -10.38642565 12.50923504 -12.34765625 6.2578125 C-11.05748211 5.27668007 -9.76546519 4.29797051 -8.47265625 3.3203125 C-7.39371094 2.50240234 -7.39371094 2.50240234 -6.29296875 1.66796875 C-2.77972367 -0.87878119 -2.77972367 -0.87878119 0 0 Z " fill="#7EFCD3" transform="translate(321.34765625,360.7421875)"/>
<path d="M0 0 C0.99 0.144375 1.98 0.28875 3 0.4375 C5.78746719 0.84139831 8.57656487 1.1817664 11.375 1.5 C15 2 15 2 16 3 C18.34987262 3.23527773 20.70556039 3.41386417 23.0625 3.5625 C24.35285156 3.64628906 25.64320313 3.73007812 26.97265625 3.81640625 C28.47119141 3.90728516 28.47119141 3.90728516 30 4 C30 4.66 30 5.32 30 6 C30.8878418 6.08564209 31.77568359 6.17128418 32.69042969 6.25952148 C35.99308147 6.57954421 39.29544656 6.90226608 42.59765625 7.22680664 C44.02528541 7.36655754 45.45301954 7.50524054 46.88085938 7.64282227 C48.93648536 7.84108424 50.99169977 8.04321894 53.046875 8.24609375 C54.28276367 8.36654053 55.51865234 8.4869873 56.79199219 8.61108398 C60 9 60 9 62.08569336 9.52734375 C66.82414975 10.69730314 71.95729382 10.40991139 76.8125 10.5625 C78.77219727 10.6251001 78.77219727 10.6251001 80.77148438 10.68896484 C121.49349067 12.17735483 121.49349067 12.17735483 162 9 C164.6793948 8.89248014 167.31632049 8.9529179 170 9 C170 9.33 170 9.66 170 10 C162.12662786 11.3471052 154.36818915 12.27842892 146.38671875 12.65625 C142.90669681 12.91763484 142.90669681 12.91763484 139.26611328 14.00488281 C135.25260006 15.02927958 131.51019648 15.25833372 127.35546875 15.265625 C126.63987289 15.26835419 125.92427704 15.27108337 125.18699646 15.27389526 C122.85364161 15.27793755 120.52080312 15.26530015 118.1875 15.25 C117.38552185 15.24756287 116.5835437 15.24512573 115.75726318 15.24261475 C103.36298053 15.19879487 90.99994387 14.80907285 78.625 14.125 C77.51141617 14.06632751 77.51141617 14.06632751 76.37533569 14.00646973 C74.26250795 13.89193354 72.15085378 13.76497382 70.0390625 13.6328125 C68.84490723 13.55949707 67.65075195 13.48618164 66.42041016 13.41064453 C62.7839191 12.97405795 59.51307427 12.01645151 56 11 C53.22921796 10.66260636 53.22921796 10.66260636 50.5390625 10.62109375 C49.57355469 10.58693359 48.60804688 10.55277344 47.61328125 10.51757812 C46.62714844 10.49115234 45.64101562 10.46472656 44.625 10.4375 C42.63789151 10.37786137 40.65089596 10.31428252 38.6640625 10.24609375 C37.35622803 10.21020142 37.35622803 10.21020142 36.02197266 10.17358398 C34 10 34 10 33 9 C31.00458104 8.77471076 29.00840136 8.55238905 27.0078125 8.37890625 C25 8 25 8 22 6 C15.17460538 4.05170639 8.05162203 3.50943277 1 3 C0.67 2.01 0.34 1.02 0 0 Z " fill="#59A3A1" transform="translate(157,475)"/>
<path d="M0 0 C14.86153846 2.12307692 14.86153846 2.12307692 21 6 C23.31543043 6.72640955 25.65269935 7.38431458 28 8 C29.75259326 8.49083282 31.50251745 8.99127146 33.25 9.5 C34.08015625 9.7371875 34.9103125 9.974375 35.765625 10.21875 C38 11 38 11 41 13 C39.9594481 15.74327319 38.99499982 17.0040542 36.6875 18.875 C34 20 34 20 31.5625 19.375 C30.2940625 18.694375 30.2940625 18.694375 29 18 C22.9507515 14.91364872 19.07493863 13.86925061 12.25 13.9375 C9.15625 13.9684375 9.15625 13.9684375 6 14 C4.02 9.38 2.04 4.76 0 0 Z " fill="#7CF4D2" transform="translate(269,339)"/>
<path d="M0 0 C7.66181818 3.74181818 7.66181818 3.74181818 11 6 C11 6.66 11 7.32 11 8 C11.66 8 12.32 8 13 8 C13 8.66 13 9.32 13 10 C13.66 10 14.32 10 15 10 C15.33 10.99 15.66 11.98 16 13 C18.01508358 13.73323796 18.01508358 13.73323796 20 14 C20 14.66 20 15.32 20 16 C20.99 16 21.98 16 23 16 C23 16.66 23 17.32 23 18 C23.99 18 24.98 18 26 18 C26 18.66 26 19.32 26 20 C26.99 20 27.98 20 29 20 C29.66 20.99 30.32 21.98 31 23 C34.06556598 23.73343428 34.06556598 23.73343428 37 24 C37 24.66 37 25.32 37 26 C37.99 26 38.98 26 40 26 C40 26.66 40 27.32 40 28 C41.32 28 42.64 28 44 28 C44 28.66 44 29.32 44 30 C44.804375 30.2475 45.60875 30.495 46.4375 30.75 C52.3616864 32.82866189 57.95423975 35.44178327 63.5 38.375 C72.79852237 43.08994934 82.98558199 46.19645266 93 49 C95.00361307 49.65572791 97.00491933 50.31875294 99 51 C97.25 51.625 97.25 51.625 95 52 C94.43539062 51.70738281 93.87078125 51.41476562 93.2890625 51.11328125 C89.28576941 49.16628717 84.85767922 48.7009653 80.5078125 47.87890625 C76.98339613 46.99583979 74.20718089 45.6769864 71 44 C68.83105098 43.28880921 68.83105098 43.28880921 66.8125 42.875 C60.39891867 41.40303051 60.39891867 41.40303051 58.60253906 39.58813477 C56.67935128 37.68223341 54.80147048 36.75351233 52.359375 35.58984375 C51.00005859 34.94112305 51.00005859 34.94112305 49.61328125 34.27929688 C48.19595703 33.61510742 48.19595703 33.61510742 46.75 32.9375 C45.82058594 32.49083984 44.89117187 32.04417969 43.93359375 31.58398438 C39.01303324 29.25593983 34.29072417 27.29345052 29 26 C29 25.34 29 24.68 29 24 C25.41247258 22.13448574 21.72187807 20.57464072 18 19 C18 18.34 18 17.68 18 17 C17.01 17 16.02 17 15 17 C14.773125 16.401875 14.54625 15.80375 14.3125 15.1875 C12.66348536 12.43914226 10.72640732 11.60788124 8 10 C7.67 9.01 7.34 8.02 7 7 C5.6846659 6.29848848 4.34882408 5.63474075 3 5 C1.25 3.5 1.25 3.5 0 2 C0 1.34 0 0.68 0 0 Z " fill="#35615F" transform="translate(156,281)"/>
<path d="M0 0 C1.51400391 0.01740234 1.51400391 0.01740234 3.05859375 0.03515625 C4.07050781 0.04417969 5.08242188 0.05320312 6.125 0.0625 C6.90746094 0.07410156 7.68992187 0.08570313 8.49609375 0.09765625 C8.49609375 0.42765625 8.49609375 0.75765625 8.49609375 1.09765625 C7.21992188 1.30261719 5.94375 1.50757813 4.62890625 1.71875 C2.95960754 1.9907144 1.29033822 2.26285916 -0.37890625 2.53515625 C-1.22066406 2.66986328 -2.06242188 2.80457031 -2.9296875 2.94335938 C-4.13818359 3.14155273 -4.13818359 3.14155273 -5.37109375 3.34375 C-6.48653564 3.52442017 -6.48653564 3.52442017 -7.62451172 3.70874023 C-9.58275272 4.0301273 -9.58275272 4.0301273 -11.50390625 5.09765625 C-14.23677735 5.30720547 -16.95457786 5.47272917 -19.69140625 5.59765625 C-25.02993308 5.84768266 -30.20840029 6.33778943 -35.50390625 7.09765625 C-61.35058248 9.37627421 -87.78466915 8.48771482 -113.69140625 7.66015625 C-114.93728516 7.62100098 -116.18316406 7.5818457 -117.46679688 7.54150391 C-126.27916273 7.21645762 -126.27916273 7.21645762 -130.50390625 6.09765625 C-131.99540603 5.90372761 -133.49086099 5.73876779 -134.98828125 5.59765625 C-135.84164062 5.51515625 -136.695 5.43265625 -137.57421875 5.34765625 C-138.90066406 5.22390625 -138.90066406 5.22390625 -140.25390625 5.09765625 C-146.35149047 4.51865715 -152.42983679 3.88869785 -158.50390625 3.09765625 C-158.50390625 2.76765625 -158.50390625 2.43765625 -158.50390625 2.09765625 C-155.69134344 2.07081313 -152.87903384 2.05089437 -150.06640625 2.03515625 C-149.26396484 2.02677734 -148.46152344 2.01839844 -147.63476562 2.00976562 C-145.59095404 2.00114195 -143.54706723 2.04537475 -141.50390625 2.09765625 C-141.17390625 2.42765625 -140.84390625 2.75765625 -140.50390625 3.09765625 C-127.73365725 5.12607159 -115.00996721 5.38298962 -102.109375 5.328125 C-100.21893851 5.32692875 -98.32850142 5.32648097 -96.43806458 5.32673645 C-92.51783412 5.32518863 -88.5976972 5.31702386 -84.67749023 5.3034668 C-79.65862421 5.28632565 -74.63985881 5.28265779 -69.62096691 5.28341198 C-65.73565211 5.28314024 -61.85035918 5.27766087 -57.96505165 5.27041054 C-56.11311317 5.26723762 -54.26117223 5.26525969 -52.40923119 5.26451683 C-49.83291752 5.26234727 -47.2567106 5.25359412 -44.68041992 5.24291992 C-43.54355743 5.2435997 -43.54355743 5.2435997 -42.38372803 5.24429321 C-38.62031447 5.2215091 -35.17005888 4.9313788 -31.50390625 4.09765625 C-28.014237 3.84937939 -24.52923225 3.65827914 -21.03515625 3.4921875 C-17.4698637 3.61681908 -17.4698637 3.61681908 -14.50390625 2.09765625 C-11.6641809 1.77414324 -8.82316888 1.58461335 -5.97265625 1.37890625 C-3.11459571 1.05330442 -2.88815889 0.1126427 0 0 Z " fill="#1C3333" transform="translate(347.50390625,478.90234375)"/>
<path d="M0 0 C-3 2 -3 2 -6.375 2.875 C-10.23119285 4.0717495 -12.0267787 5.32410083 -15 8 C-15.87011719 8.70189453 -15.87011719 8.70189453 -16.7578125 9.41796875 C-17.37398437 9.91941406 -17.99015625 10.42085937 -18.625 10.9375 C-19.19476563 11.40027344 -19.76453125 11.86304688 -20.3515625 12.33984375 C-24.44120011 16.45855461 -25.43106607 19.94199643 -25.4375 25.6875 C-25.33406958 31.47351914 -24.35749978 35.9030213 -21.875 41.109375 C-21 43 -21 43 -21 45 C-20.46375 45.2475 -19.9275 45.495 -19.375 45.75 C-14.17177671 48.48853857 -10.03444797 51.72823156 -6 56 C-9.465 55.505 -9.465 55.505 -13 55 C-13.0825 54.38125 -13.165 53.7625 -13.25 53.125 C-13.79922538 50.86279272 -13.79922538 50.86279272 -15.8125 49.875 C-16.534375 49.58625 -17.25625 49.2975 -18 49 C-19.33333333 48.33333333 -20.66666667 47.66666667 -22 47 C-22 46.01 -22 45.02 -22 44 C-22.99 44 -23.98 44 -25 44 C-25 43.01 -25 42.02 -25 41 C-25.99 40.67 -26.98 40.34 -28 40 C-31.4647898 33.49774447 -30.73954835 25.22061876 -29 18.25 C-28.67 17.1775 -28.34 16.105 -28 15 C-26.68 15 -25.36 15 -24 15 C-23.79375 14.443125 -23.5875 13.88625 -23.375 13.3125 C-21.82796651 10.71067095 -19.93775371 9.14965508 -17.5703125 7.296875 C-15.761783 5.86635995 -15.761783 5.86635995 -13.5625 3.3125 C-9.67637863 -0.19448757 -5.07827752 -2.03131101 0 0 Z " fill="#244140" transform="translate(273,193)"/>
<path d="M0 0 C4.17683545 -0.02511278 8.35362845 -0.04305063 12.53051758 -0.05493164 C13.94523893 -0.05989558 15.35995533 -0.06666892 16.7746582 -0.07543945 C29.23329049 -0.15062467 41.35205737 0.50227855 53.66015625 2.53125 C57.23397611 3.03283875 60.77303271 3.28655009 64.375 3.5 C69.23002683 3.79802062 73.4246956 4.36596272 78 6 C78 6.33 78 6.66 78 7 C75.62492145 7.02719556 73.25016036 7.04693247 70.875 7.0625 C69.87726563 7.07506836 69.87726563 7.07506836 68.859375 7.08789062 C64.77404717 7.10791674 61.01522013 6.68614521 57 6 C53.09890349 5.70568784 49.189521 5.56149852 45.28125 5.39453125 C39.20564332 5.10282166 39.20564332 5.10282166 37 4 C34.23068632 3.84308093 31.48265893 3.74156866 28.7109375 3.68359375 C27.48330185 3.6524221 27.48330185 3.6524221 26.23086548 3.62062073 C23.61233034 3.55515188 20.99369361 3.49625274 18.375 3.4375 C16.60155193 3.39431224 14.82811419 3.35069786 13.0546875 3.30664062 C8.70322954 3.19947324 4.35166923 3.09819831 0 3 C0 2.01 0 1.02 0 0 Z " fill="#2E5452" transform="translate(314,121)"/>
<path d="M0 0 C22.77 0 45.54 0 69 0 C66.12855894 2.87144106 63.5171499 4.71579654 60.0625 6.8125 C59.02222656 7.45832031 57.98195312 8.10414062 56.91015625 8.76953125 C54 10 54 10 51.83984375 9.32421875 C51.23269531 8.88722656 50.62554687 8.45023438 50 8 C49.11828125 7.505 49.11828125 7.505 48.21875 7 C47.07291667 6.33333333 45.92708333 5.66666667 44.78125 5 C43.89953125 4.505 43.89953125 4.505 43 4 C42.23091309 3.48687256 42.23091309 3.48687256 41.44628906 2.96337891 C37.71609837 1.49438365 34.05444102 1.64111467 30.078125 1.5859375 C29.21813904 1.56657135 28.35815308 1.5472052 27.47210693 1.5272522 C24.73150479 1.46758186 21.99086036 1.4211214 19.25 1.375 C17.38930483 1.33680866 15.52862712 1.29775625 13.66796875 1.2578125 C9.11212136 1.16189065 4.55619121 1.07781332 0 1 C0 0.67 0 0.34 0 0 Z " fill="#7AF3CB" transform="translate(53,47)"/>
<path d="M0 0 C1.39195915 4.17587745 -0.17676781 6.13474776 -2 10 C-2.66 10 -3.32 10 -4 10 C-3.938125 11.423125 -3.938125 11.423125 -3.875 12.875 C-4 16 -4 16 -6 18 C-6.63853293 19.86563885 -6.63853293 19.86563885 -7.0625 21.9375 C-7.61181542 24.36629134 -8.20959787 26.62879362 -9 29 C-9.15070797 31.13661258 -9.2485966 33.27712124 -9.31640625 35.41796875 C-9.35830078 36.67158203 -9.40019531 37.92519531 -9.44335938 39.21679688 C-9.48267578 40.52712891 -9.52199219 41.83746094 -9.5625 43.1875 C-9.60570992 44.52279978 -9.649325 45.85808652 -9.69335938 47.19335938 C-9.79956502 50.46213297 -9.90160997 53.73098333 -10 57 C-11.485 57.495 -11.485 57.495 -13 58 C-13.09961748 53.03789993 -13.1718178 48.0763946 -13.21972656 43.11352539 C-13.23971886 41.42885179 -13.26692223 39.74424649 -13.30175781 38.05981445 C-13.68105136 19.23458335 -13.68105136 19.23458335 -9 13 C-8.34 12.67 -7.68 12.34 -7 12 C-5.94410931 10.36816893 -4.9563874 8.69207001 -4 7 C-3.27109298 5.72901772 -2.54192096 4.45818739 -1.8125 3.1875 C-1.214375 2.135625 -0.61625 1.08375 0 0 Z " fill="#132423" transform="translate(148,183)"/>
<path d="M0 0 C2.97 0.495 2.97 0.495 6 1 C6.33 1.66 6.66 2.32 7 3 C8.85240164 3.83047008 8.85240164 3.83047008 11 4.5 C13.1875 5.21875 13.1875 5.21875 15 6 C15.33 6.66 15.66 7.32 16 8 C18.01669827 9.13350534 18.01669827 9.13350534 20 10 C18 11 18 11 16.0546875 10.44140625 C14.97574219 10.00634766 14.97574219 10.00634766 13.875 9.5625 C13.15054688 9.27503906 12.42609375 8.98757813 11.6796875 8.69140625 C11.12539062 8.46324219 10.57109375 8.23507812 10 8 C10 7.34 10 6.68 10 6 C7.03 5.505 7.03 5.505 4 5 C4 14.9 4 24.8 4 35 C2.68 34.67 1.36 34.34 0 34 C0 22.78 0 11.56 0 0 Z " fill="#2B504E" transform="translate(135,389)"/>
<path d="M0 0 C0.77637314 -0.00483902 1.55274628 -0.00967804 2.35264587 -0.0146637 C6.54155218 -0.00495174 10.46341666 0.29613553 14.58984375 1.12109375 C14.58984375 1.45109375 14.58984375 1.78109375 14.58984375 2.12109375 C13.02024902 2.14296753 13.02024902 2.14296753 11.41894531 2.1652832 C-15.14540126 2.38843218 -15.14540126 2.38843218 -41.44384766 5.74804688 C-44.6693244 6.35998237 -47.91301994 6.82549164 -51.16015625 7.30859375 C-52.9102195 7.5790181 -54.66024828 7.84966642 -56.41015625 8.12109375 C-56.08015625 7.46109375 -55.75015625 6.80109375 -55.41015625 6.12109375 C-54.09015625 6.12109375 -52.77015625 6.12109375 -51.41015625 6.12109375 C-51.41015625 5.13109375 -51.41015625 4.14109375 -51.41015625 3.12109375 C-48.25477344 1.54340235 -44.82447371 1.75704976 -41.3515625 1.5859375 C-40.53380844 1.54296036 -39.71605438 1.49998322 -38.8735199 1.45570374 C-37.12925382 1.36530396 -35.38486788 1.27719292 -33.64038086 1.19116211 C-31.0417469 1.0620271 -28.44377064 0.92321576 -25.84570312 0.78320312 C-17.23063342 0.33564168 -8.62735733 0.02993582 0 0 Z " fill="#417674" transform="translate(329.41015625,183.87890625)"/>
<path d="M0 0 C7.66181818 3.74181818 7.66181818 3.74181818 11 6 C11 6.66 11 7.32 11 8 C11.66 8 12.32 8 13 8 C13 8.66 13 9.32 13 10 C13.66 10 14.32 10 15 10 C15.33 10.99 15.66 11.98 16 13 C18.01508358 13.73323796 18.01508358 13.73323796 20 14 C20 14.66 20 15.32 20 16 C20.99 16 21.98 16 23 16 C23 16.66 23 17.32 23 18 C23.99 18 24.98 18 26 18 C26 18.66 26 19.32 26 20 C26.99 20 27.98 20 29 20 C30.9249647 21.82193842 32.37535531 23.89235283 34 26 C33.01 26.495 33.01 26.495 32 27 C31.01 26.67 30.02 26.34 29 26 C29 25.34 29 24.68 29 24 C25.41247258 22.13448574 21.72187807 20.57464072 18 19 C18 18.34 18 17.68 18 17 C17.01 17 16.02 17 15 17 C14.773125 16.401875 14.54625 15.80375 14.3125 15.1875 C12.66348536 12.43914226 10.72640732 11.60788124 8 10 C7.67 9.01 7.34 8.02 7 7 C5.6846659 6.29848848 4.34882408 5.63474075 3 5 C1.25 3.5 1.25 3.5 0 2 C0 1.34 0 0.68 0 0 Z " fill="#34605E" transform="translate(156,281)"/>
<path d="M0 0 C0.495 1.98 0.495 1.98 1 4 C-0.21558594 4.34933594 -1.43117188 4.69867188 -2.68359375 5.05859375 C-4.26827863 5.5180586 -5.85291137 5.9777033 -7.4375 6.4375 C-8.23994141 6.66759766 -9.04238281 6.89769531 -9.86914062 7.13476562 C-13.74053247 7.98705862 -13.74053247 7.98705862 -17 10 C-20.63911309 10.69144885 -24.32564566 11.10015852 -28 11.5625 C-29.07894531 11.69889893 -30.15789062 11.83529785 -31.26953125 11.97583008 C-40.225215 13.04018069 -48.99626393 13.3303001 -58 13 C-57.67 12.01 -57.34 11.02 -57 10 C-55.73027344 10.02320313 -54.46054687 10.04640625 -53.15234375 10.0703125 C-40.22469864 10.23551799 -27.26480861 10.34267744 -14.98828125 5.71875 C-12.92532516 4.97300556 -10.88986322 4.4764074 -8.75 4 C-5.30258293 3.08068878 -2.91744244 2.00574167 0 0 Z " fill="#4B8987" transform="translate(328,412)"/>
<path d="M0 0 C0.99 0.495 0.99 0.495 2 1 C2.02505615 1.84296631 2.0501123 2.68593262 2.07592773 3.55444336 C2.17088155 6.67241674 2.27012448 9.79021503 2.37231445 12.90795898 C2.41571223 14.25914147 2.4573837 15.61038053 2.49731445 16.96166992 C2.55489952 18.90036701 2.61914298 20.83886276 2.68359375 22.77734375 C2.72025146 23.94515381 2.75690918 25.11296387 2.79467773 26.31616211 C2.70076188 28.91779795 2.70076188 28.91779795 4 30 C5.32725037 30.29922386 6.66232286 30.56400789 8 30.8125 C13.01127318 31.86623481 17.41172478 33.76552082 22 36 C18.32370389 37.35170606 16.25891073 36.61707459 12.6875 35.1875 C8.44679512 33.51178637 4.4409561 32.2688446 0 31 C0 20.77 0 10.54 0 0 Z " fill="#47817F" transform="translate(135,438)"/>
<path d="M0 0 C2.47803379 0.41300563 4.61279557 0.79822891 6.8515625 1.96484375 C9.26952129 3.12986026 11.4999747 3.63033651 14.125 4.1875 C22.73055843 6.23745933 30.82139594 9.68312169 39 13 C33.94342746 14.35022581 28.91174765 14.34388353 24.0703125 12.109375 C22.36691718 11.09490846 20.68302199 10.04791935 19 9 C17.02253397 8.26919734 15.01927511 7.60578253 13 7 C11.4361594 6.48320586 9.87373433 5.96211509 8.3125 5.4375 C7.19294922 5.06431641 7.19294922 5.06431641 6.05078125 4.68359375 C4.3671875 4.12239583 2.68359375 3.56119792 1 3 C0.67 2.01 0.34 1.02 0 0 Z " fill="#366361" transform="translate(160,403)"/>
<path d="M0 0 C0.99 0.33 1.98 0.66 3 1 C6.70219349 15.11461267 5.40762717 30.37120473 4.125 44.75 C4.04668945 45.66120605 3.96837891 46.57241211 3.88769531 47.51123047 C3.80358398 48.34799316 3.71947266 49.18475586 3.6328125 50.046875 C3.55949707 50.78776367 3.48618164 51.52865234 3.41064453 52.29199219 C3.20737549 53.13745605 3.20737549 53.13745605 3 54 C2.01 54.495 2.01 54.495 1 55 C1.03029297 54.41734375 1.06058594 53.8346875 1.09179688 53.234375 C3.33492818 26.39904452 3.33492818 26.39904452 0 0 Z " fill="#2E5453" transform="translate(448,356)"/>
<path d="M0 0 C0.99 0 1.98 0 3 0 C3 0.66 3 1.32 3 2 C3.99 2 4.98 2 6 2 C6 2.66 6 3.32 6 4 C6.99 4 7.98 4 9 4 C9 4.66 9 5.32 9 6 C9.66 6 10.32 6 11 6 C11 6.66 11 7.32 11 8 C11.66 8 12.32 8 13 8 C13 8.66 13 9.32 13 10 C13.99 10.33 14.98 10.66 16 11 C16.33 11.99 16.66 12.98 17 14 C17.474375 14.4125 17.94875 14.825 18.4375 15.25 C20.73322046 17.82120691 21.1470707 20.71012985 22 24 C22.33 24.33 22.66 24.66 23 25 C23.14115161 27.67058851 23.04247107 30.32432238 23 33 C22.67 33 22.34 33 22 33 C22 30.69 22 28.38 22 26 C21.34 26 20.68 26 20 26 C19.68546875 25.33613281 19.3709375 24.67226563 19.046875 23.98828125 C18.61890625 23.10527344 18.1909375 22.22226562 17.75 21.3125 C17.33234375 20.44238281 16.9146875 19.57226562 16.484375 18.67578125 C13.49258724 13.28269016 9.71223467 9.75484813 4.75 6.1875 C4.19570313 5.78080078 3.64140625 5.37410156 3.0703125 4.95507812 C1.71789547 3.96408289 0.35955093 2.98118534 -1 2 C-0.67 1.34 -0.34 0.68 0 0 Z " fill="#335D5B" transform="translate(321,358)"/>
<path d="M0 0 C-3 2 -3 2 -6.375 2.875 C-10.23119285 4.0717495 -12.0267787 5.32410083 -15 8 C-15.87011719 8.70189453 -15.87011719 8.70189453 -16.7578125 9.41796875 C-17.37398437 9.91941406 -17.99015625 10.42085937 -18.625 10.9375 C-19.19476563 11.40027344 -19.76453125 11.86304688 -20.3515625 12.33984375 C-23.46932199 15.47976741 -24.89024373 17.96970729 -25.36328125 22.41015625 C-25.34652344 23.61542969 -25.32976562 24.82070312 -25.3125 26.0625 C-25.30863281 27.27035156 -25.30476562 28.47820312 -25.30078125 29.72265625 C-25.01838518 32.79967317 -24.47499083 34.36909799 -23 37 C-23.375 39.25 -23.375 39.25 -24 41 C-28.27631865 35.38733177 -28.72363972 30.43999902 -28.515625 23.44921875 C-27.32116408 15.45899912 -22.14681752 10.70820065 -16 6 C-15.195625 5.113125 -14.39125 4.22625 -13.5625 3.3125 C-9.67637863 -0.19448757 -5.07827752 -2.03131101 0 0 Z " fill="#47817F" transform="translate(273,193)"/>
<path d="M0 0 C2.64 0 5.28 0 8 0 C8 0.66 8 1.32 8 2 C8.99 2 9.98 2 11 2 C11 2.66 11 3.32 11 4 C11.53625 4.10828125 12.0725 4.2165625 12.625 4.328125 C15.59728935 5.16897001 18.22073421 6.40205609 21 7.75 C22.546875 8.48476563 22.546875 8.48476563 24.125 9.234375 C27.20868077 11.12815721 28.92323228 13.0645687 31 16 C24.86039696 14.79400654 19.94860512 12.91474161 15 9 C14.34 8.01 13.68 7.02 13 6 C10.16372847 4.8344738 10.16372847 4.8344738 6.9375 3.9375 C4.94128298 3.34646785 2.95644781 2.71169751 1 2 C0.67 1.34 0.34 0.68 0 0 Z " fill="#284A49" transform="translate(379,293)"/>
<path d="M0 0 C3 2 3 2 3.67700195 3.64453125 C4.13587741 6.99088834 4.16268912 10.31656629 4.16796875 13.6875 C4.17129715 14.42701904 4.17462555 15.16653809 4.17805481 15.9284668 C4.18310616 17.4884377 4.18546369 19.04841936 4.18530273 20.60839844 C4.18749239 22.99171726 4.20567528 25.3745753 4.22460938 27.7578125 C4.22754306 29.27604009 4.22952802 30.79426987 4.23046875 32.3125 C4.23765427 33.02301514 4.24483978 33.73353027 4.25224304 34.46557617 C4.23528375 38.14499323 4.02825685 40.87295748 2 44 C1.34 44 0.68 44 0 44 C0.16226074 43.17781982 0.32452148 42.35563965 0.49169922 41.50854492 C1.05698688 37.60664821 1.14378729 33.79512327 1.1328125 29.86328125 C1.13376923 29.10202438 1.13472595 28.34076752 1.13571167 27.55644226 C1.13638877 25.9571423 1.13456745 24.35783952 1.13037109 22.75854492 C1.12499379 20.30967073 1.1303434 17.86097808 1.13671875 15.41210938 C1.13605832 13.85416626 1.13477789 12.29622326 1.1328125 10.73828125 C1.13483673 10.00700516 1.13686096 9.27572906 1.13894653 8.52229309 C1.12453702 5.40861892 0.99240293 2.9772088 0 0 Z " fill="#81ECE8" transform="translate(452,360)"/>
<path d="M0 0 C1.05904289 0.00636726 1.05904289 0.00636726 2.13948059 0.01286316 C4.39155428 0.02963841 6.64272867 0.06728632 8.89453125 0.10546875 C10.4225131 0.12051718 11.95050901 0.13420531 13.47851562 0.14648438 C17.22169997 0.17953786 20.96421321 0.23131043 24.70703125 0.29296875 C24.70703125 0.95296875 24.70703125 1.61296875 24.70703125 2.29296875 C13.02217581 3.00422082 1.41498699 3.43830889 -10.29296875 3.29296875 C-7.60609619 -0.51966383 -4.26084146 -0.09638636 0 0 Z " fill="#172B2A" transform="translate(313.29296875,181.70703125)"/>
<path d="M0 0 C1.51400391 0.01740234 1.51400391 0.01740234 3.05859375 0.03515625 C4.07050781 0.04417969 5.08242188 0.05320312 6.125 0.0625 C6.90746094 0.07410156 7.68992187 0.08570313 8.49609375 0.09765625 C8.49609375 0.42765625 8.49609375 0.75765625 8.49609375 1.09765625 C6.58183594 1.40509766 6.58183594 1.40509766 4.62890625 1.71875 C2.95960754 1.9907144 1.29033822 2.26285916 -0.37890625 2.53515625 C-1.22066406 2.66986328 -2.06242187 2.80457031 -2.9296875 2.94335938 C-4.13818359 3.14155273 -4.13818359 3.14155273 -5.37109375 3.34375 C-6.11472168 3.46419678 -6.85834961 3.58464355 -7.62451172 3.70874023 C-9.58275272 4.0301273 -9.58275272 4.0301273 -11.50390625 5.09765625 C-14.23677735 5.30720547 -16.95457786 5.47272917 -19.69140625 5.59765625 C-23.863742 5.79306486 -27.9534514 6.01670701 -32.08984375 6.625 C-35.75145737 7.1319282 -39.24702838 7.1953408 -42.94140625 7.16015625 C-44.17761719 7.15113281 -45.41382813 7.14210938 -46.6875 7.1328125 C-47.61691406 7.12121094 -48.54632813 7.10960937 -49.50390625 7.09765625 C-49.50390625 6.76765625 -49.50390625 6.43765625 -49.50390625 6.09765625 C-39.1618978 4.86475478 -28.87385397 3.84507753 -18.46875 3.34375 C-15.61962355 3.42877086 -15.61962355 3.42877086 -14.50390625 2.09765625 C-11.6641809 1.77414324 -8.82316888 1.58461335 -5.97265625 1.37890625 C-3.11459571 1.05330442 -2.88815889 0.1126427 0 0 Z " fill="#2A4C4B" transform="translate(347.50390625,478.90234375)"/>
<path d="M0 0 C-0.97582031 0.33773437 -1.95164063 0.67546875 -2.95703125 1.0234375 C-4.24226463 1.47373825 -5.52741665 1.92427126 -6.8125 2.375 C-7.45509766 2.59671875 -8.09769531 2.8184375 -8.75976562 3.046875 C-11.81686717 4.1239885 -14.28592791 5.19061861 -17 7 C-19.3046875 7.59765625 -19.3046875 7.59765625 -21.875 8.0625 C-22.71804687 8.21847656 -23.56109375 8.37445313 -24.4296875 8.53515625 C-25.27789062 8.68855469 -26.12609375 8.84195313 -27 9 C-28.66728549 9.33022413 -30.33414194 9.66264882 -32 10 C-30.40777033 6.81554067 -27.16558031 6.23790203 -24 5 C-22.783125 4.505 -21.56625 4.01 -20.3125 3.5 C-5.51598442 -1.94372784 -5.51598442 -1.94372784 0 0 Z " fill="#417674" transform="translate(228,133)"/>
<path d="M0 0 C7.57138886 0.96656028 14.46228392 1.87091616 21 6 C23.31543043 6.72640955 25.65269935 7.38431458 28 8 C29.75259326 8.49083282 31.50251745 8.99127146 33.25 9.5 C34.08015625 9.7371875 34.9103125 9.974375 35.765625 10.21875 C38 11 38 11 41 13 C41 13.66 41 14.32 41 15 C37.38983605 14.22702086 34.10521969 12.88154591 30.6875 11.5 C26.04667726 9.68652535 21.96234908 8.3462104 17 8 C17 7.34 17 6.68 17 6 C13.10296244 4.24004755 9.26099016 3.36046228 5.0859375 2.5625 C3 2 3 2 0 0 Z " fill="#467F7D" transform="translate(269,339)"/>
<path d="M0 0 C2.81256281 -0.02684312 5.62487241 -0.04676188 8.4375 -0.0625 C9.23994141 -0.07087891 10.04238281 -0.07925781 10.86914062 -0.08789062 C12.91295221 -0.0965143 14.95683902 -0.0522815 17 0 C17.33 0.33 17.66 0.66 18 1 C20.28703181 1.3005727 22.5821436 1.54003766 24.87890625 1.75390625 C25.5655687 1.81907944 26.25223114 1.88425262 26.95970154 1.95140076 C29.16026435 2.15928893 31.36134782 2.36095738 33.5625 2.5625 C35.05147061 2.70206573 36.54040351 2.84203442 38.02929688 2.98242188 C41.6857713 3.32629738 45.34273768 3.66459582 49 4 C49 4.33 49 4.66 49 5 C46.24993392 5.0270203 43.50013454 5.04684883 40.75 5.0625 C39.97269531 5.07087891 39.19539063 5.07925781 38.39453125 5.08789062 C37.26337891 5.09272461 37.26337891 5.09272461 36.109375 5.09765625 C35.07248535 5.10551147 35.07248535 5.10551147 34.01464844 5.11352539 C31.8903409 4.99382071 30.05607629 4.53361729 28 4 C26.50850022 3.80607136 25.01304526 3.64111154 23.515625 3.5 C22.66226563 3.4175 21.80890625 3.335 20.9296875 3.25 C19.60324219 3.12625 19.60324219 3.12625 18.25 3 C12.15241578 2.4210009 6.07406946 1.7910416 0 1 C0 0.67 0 0.34 0 0 Z " fill="#234140" transform="translate(189,481)"/>
<path d="M0 0 C3.81740035 0.4873277 7.50866062 1.09668563 11.25 2 C15.6862008 3.02901565 20.07965105 3.43718362 24.6171875 3.75390625 C27 4 27 4 30 5 C32.22574335 5.22451458 34.45581519 5.40782878 36.6875 5.5625 C37.86699219 5.64628906 39.04648438 5.73007812 40.26171875 5.81640625 C41.61716797 5.90728516 41.61716797 5.90728516 43 6 C43 6.33 43 6.66 43 7 C39.35418313 7.02887512 35.70839537 7.04675585 32.0625 7.0625 C31.02158203 7.07087891 29.98066406 7.07925781 28.90820312 7.08789062 C27.42416992 7.09272461 27.42416992 7.09272461 25.91015625 7.09765625 C24.53549194 7.10551147 24.53549194 7.10551147 23.13305664 7.11352539 C21 7 21 7 20 6 C18.52825321 5.67294516 17.04685628 5.38898848 15.5625 5.125 C10.24893711 4.11289278 5.14896173 2.64328566 0 1 C0 0.67 0 0.34 0 0 Z " fill="#305857" transform="translate(200,417)"/>
<path d="M0 0 C4.46519166 0.51030762 6.58466573 2.18234923 10 5 C12.6794645 6.24016669 12.6794645 6.24016669 15 7 C15 7.99 15 8.98 15 10 C15.61875 10.12375 16.2375 10.2475 16.875 10.375 C19 11 19 11 21 13 C15.85426624 12.34029054 10.67183633 11.32158738 6 9 C4.6875 6.5625 4.6875 6.5625 4 4 C1.97959252 1.72808584 1.97959252 1.72808584 0 0 Z " fill="#73D3CF" transform="translate(261,243)"/>
<path d="M0 0 C-0.33 0.66 -0.66 1.32 -1 2 C-3.46284168 2.26658065 -5.84211417 2.41935842 -8.3125 2.5 C-13.30232286 2.72485141 -18.08725491 3.09350338 -23 4.0625 C-30.30439363 5.4245071 -37.60239135 5.16898091 -45 5 C-45 4.67 -45 4.34 -45 4 C-43.741875 3.87882812 -42.48375 3.75765625 -41.1875 3.6328125 C-32.74122051 2.81005838 -24.29917033 1.9649816 -15.875 0.9375 C-13.95300781 0.70353516 -13.95300781 0.70353516 -11.9921875 0.46484375 C-4.34189189 -0.72364865 -4.34189189 -0.72364865 0 0 Z " fill="#6DC8C4" transform="translate(345,483)"/>
<path d="M0 0 C1.485 0.99 1.485 0.99 3 2 C3.27970637 4.64954732 3.37215642 7.06226451 3.328125 9.7109375 C3.32625183 10.47548248 3.32437866 11.24002747 3.32244873 12.02774048 C3.31572082 13.64679312 3.30179162 15.26582931 3.28125 16.88476562 C3.25021048 19.35822734 3.24029043 21.83105068 3.234375 24.3046875 C3.22519992 25.8776119 3.21482255 27.45052984 3.203125 29.0234375 C3.19887512 29.76210052 3.19462524 30.50076355 3.19024658 31.2618103 C3.14347927 34.63989038 3.04848046 37.7694615 2 41 C1.34 41 0.68 41 0 41 C0.0721875 40.30519531 0.144375 39.61039062 0.21875 38.89453125 C0.88199919 31.62642558 1.10968725 24.42088506 1.125 17.125 C1.12951172 16.23401611 1.13402344 15.34303223 1.13867188 14.42504883 C1.12761479 9.50971599 0.83181835 4.84567196 0 0 Z " fill="#57A09D" transform="translate(451,361)"/>
<path d="M0 0 C1.34016504 2.68033008 0.74727301 4.03498002 0.125 6.9375 C-0.05804688 7.81277344 -0.24109375 8.68804687 -0.4296875 9.58984375 C-1 12 -1 12 -2 15 C-2.15145099 17.2825699 -2.24886979 19.56887706 -2.31640625 21.85546875 C-2.33718735 22.51710526 -2.35796844 23.17874176 -2.37937927 23.86042786 C-2.44464727 25.96934852 -2.50365344 28.07839135 -2.5625 30.1875 C-2.60570689 31.61915315 -2.64932188 33.05079404 -2.69335938 34.48242188 C-2.80030506 37.98815154 -2.90163641 41.49401786 -3 45 C-3.33 45 -3.66 45 -4 45 C-4.09961748 40.03789993 -4.1718178 35.0763946 -4.21972656 30.11352539 C-4.23971886 28.42885179 -4.26692223 26.74424649 -4.30175781 25.05981445 C-4.64901503 7.82462175 -4.64901503 7.82462175 0 0 Z " fill="#488481" transform="translate(139,196)"/>
<path d="M0 0 C14.18663759 -1.15809286 26.90176259 5.45010011 39 12 C36.77370959 12.74906966 35.44269647 13.13434481 33.16333008 12.44262695 C32.22589966 11.97022583 32.22589966 11.97022583 31.26953125 11.48828125 C30.55651855 11.14410156 29.84350586 10.79992187 29.10888672 10.4453125 C28.3510791 10.07148438 27.59327148 9.69765625 26.8125 9.3125 C18.07655998 5.18794349 9.45808858 2.81978413 0 1 C0 0.67 0 0.34 0 0 Z " fill="#315A58" transform="translate(385,192)"/>
<path d="M0 0 C0.99 0.144375 1.98 0.28875 3 0.4375 C5.78746719 0.84139831 8.57656487 1.1817664 11.375 1.5 C15 2 15 2 16 3 C18.34987262 3.23527773 20.70556039 3.41386417 23.0625 3.5625 C24.35285156 3.64628906 25.64320313 3.73007812 26.97265625 3.81640625 C28.47119141 3.90728516 28.47119141 3.90728516 30 4 C30 4.66 30 5.32 30 6 C30.66 6.33 31.32 6.66 32 7 C25.92417512 7.35052836 20.97945838 6.31650659 15.12109375 4.734375 C10.45211172 3.63579099 5.77943435 3.27284172 1 3 C0.67 2.01 0.34 1.02 0 0 Z " fill="#467F7D" transform="translate(157,475)"/>
<path d="M0 0 C0.33 0 0.66 0 1 0 C1 7.92 1 15.84 1 24 C-1 23 -1 23 -2 20 C-2.12117236 17.73154071 -2.17540383 15.45916106 -2.1875 13.1875 C-2.20167969 11.98480469 -2.21585938 10.78210938 -2.23046875 9.54296875 C-2.00124672 6.01916575 -1.27030979 3.27870472 0 0 Z " fill="#71CFCC" transform="translate(134,214)"/>
<path d="M0 0 C0 0.66 0 1.32 0 2 C-1.01578125 2.03738281 -2.0315625 2.07476562 -3.078125 2.11328125 C-10.82172422 2.46174322 -17.85970772 3.2566254 -25.359375 5.3671875 C-29.01601051 6.24348181 -32.25940487 6.21580357 -36 6 C-35.360625 5.690625 -34.72125 5.38125 -34.0625 5.0625 C-32.06389179 4.1654837 -32.06389179 4.1654837 -31 3 C-29.48071962 2.92820036 -27.95832518 2.91607993 -26.4375 2.9375 C-25.61121094 2.94652344 -24.78492188 2.95554688 -23.93359375 2.96484375 C-23.29550781 2.97644531 -22.65742188 2.98804688 -22 3 C-22 2.34 -22 1.68 -22 1 C-19.45847098 0.83096719 -16.91681012 0.66470573 -14.375 0.5 C-13.30572266 0.42845703 -13.30572266 0.42845703 -12.21484375 0.35546875 C-8.13492439 0.09345558 -4.09108781 -0.05162256 0 0 Z " fill="#3E7170" transform="translate(265,126)"/>
<path d="M0 0 C2.31 0 4.62 0 7 0 C7 0.66 7 1.32 7 2 C8.7015625 1.9690625 8.7015625 1.9690625 10.4375 1.9375 C14 2 14 2 15 3 C16.051875 3.12375 17.10375 3.2475 18.1875 3.375 C22.01132125 4.00185594 24.6437707 5.11723722 28 7 C28 7.33 28 7.66 28 8 C26.33388095 8.042721 24.66617115 8.04063832 23 8 C22.67 7.67 22.34 7.34 22 7 C20.38046449 6.69820464 18.75381425 6.43435995 17.125 6.1875 C11.11822185 5.15619209 5.64817686 3.25053082 0 1 C0 0.67 0 0.34 0 0 Z " fill="#132323" transform="translate(150,471)"/>
<path d="M0 0 C5.28 0 10.56 0 16 0 C16 0.66 16 1.32 16 2 C20.95 2 25.9 2 31 2 C31 2.66 31 3.32 31 4 C32.485 4.495 32.485 4.495 34 5 C22.60737649 3.99500612 11.27427159 2.9661995 0 1 C0 0.67 0 0.34 0 0 Z " fill="#62B3B0" transform="translate(358,122)"/>
<path d="M0 0 C0.33 1.32 0.66 2.64 1 4 C0.34 4 -0.32 4 -1 4 C-1.10699219 4.72703125 -1.21398437 5.4540625 -1.32421875 6.203125 C-2.05234818 9.21665489 -3.10573292 11.17472613 -4.8125 13.75 C-5.31394531 14.52859375 -5.81539063 15.3071875 -6.33203125 16.109375 C-8.20007901 18.22678745 -9.245107 18.6414456 -12 19 C-12 18.34 -12 17.68 -12 17 C-11.34 17 -10.68 17 -10 17 C-10 15.68 -10 14.36 -10 13 C-8.69205669 11.64175118 -7.35099103 10.31543863 -6 9 C-3.90956342 6.05809291 -1.94745262 3.03802608 0 0 Z " fill="#46807E" transform="translate(447,416)"/>
<path d="M0 0 C3 0.5 3 0.5 6 1 C7.6396875 1.2165625 7.6396875 1.2165625 9.3125 1.4375 C10.6428125 1.7159375 10.6428125 1.7159375 12 2 C12.33 2.66 12.66 3.32 13 4 C15.92123066 5.46061533 18.30208506 6.03709817 21.5625 6.4375 C25.01598214 7.00261526 26.4706882 7.67303315 29 10 C26.66666667 9.66666667 24.33333333 9.33333333 22 9 C20.906875 8.9175 19.81375 8.835 18.6875 8.75 C14.46043452 7.89025787 11.21169751 6.27782535 7.4296875 4.25390625 C5.00101346 3.00052303 2.55113278 1.97596717 0 1 C0 0.67 0 0.34 0 0 Z " fill="#498583" transform="translate(298,262)"/>
<path d="M0 0 C0 7.02325256 -6.02668332 14.34566472 -10 20 C-10.82273185 17.63265545 -11.10990889 16.35737246 -10.36328125 13.9296875 C-10.01652344 13.25164062 -9.66976562 12.57359375 -9.3125 11.875 C-8.97863281 11.19179687 -8.64476562 10.50859375 -8.30078125 9.8046875 C-6.76842739 7.67871907 -5.34109077 7.09090003 -3 6 C-2.33820153 4.01954441 -2.33820153 4.01954441 -2 2 C-1.34 1.34 -0.68 0.68 0 0 Z " fill="#559B99" transform="translate(151,176)"/>
<path d="M0 0 C0.8971875 0.309375 0.8971875 0.309375 1.8125 0.625 C1.11125 1.13289063 0.41 1.64078125 -0.3125 2.1640625 C-1.26125 2.85242188 -2.21 3.54078125 -3.1875 4.25 C-4.18910156 4.97316406 -5.19070313 5.69632812 -6.22265625 6.44140625 C-9.37459649 8.7627957 -12.42402059 11.18884541 -15.43359375 13.69140625 C-17.1875 14.625 -17.1875 14.625 -19.41015625 14.27734375 C-19.99667969 14.06207031 -20.58320313 13.84679687 -21.1875 13.625 C-20.50042969 13.23828125 -19.81335938 12.8515625 -19.10546875 12.453125 C-18.20441406 11.93234375 -17.30335938 11.4115625 -16.375 10.875 C-15.48167969 10.36453125 -14.58835937 9.8540625 -13.66796875 9.328125 C-11.10946313 7.76863176 -11.10946313 7.76863176 -9.55078125 5.421875 C-9.10089844 4.82890625 -8.65101563 4.2359375 -8.1875 3.625 C-7.1975 3.625 -6.2075 3.625 -5.1875 3.625 C-5.1875 2.965 -5.1875 2.305 -5.1875 1.625 C-2.1875 -0.375 -2.1875 -0.375 0 0 Z " fill="#4B8A87" transform="translate(421.1875,449.375)"/>
<path d="M0 0 C4.91011081 0.8083719 9.53902992 2.37839323 14.25 3.9375 C15.07757813 4.20240234 15.90515625 4.46730469 16.7578125 4.74023438 C17.54414063 4.99998047 18.33046875 5.25972656 19.140625 5.52734375 C19.85766602 5.76187256 20.57470703 5.99640137 21.31347656 6.23803711 C23 7 23 7 24 9 C18.63101757 8.66730664 15.29258513 8.35358214 11 5 C8.68430839 4.42734702 6.37884776 4.0006136 4.0234375 3.625 C2 3 2 3 0 0 Z " fill="#2F5654" transform="translate(283,258)"/>
<path d="M0 0 C7.7498635 0.52541447 14.6450086 2.55591476 22 5 C21.67 5.66 21.34 6.32 21 7 C18.36 6.67 15.72 6.34 13 6 C13 5.34 13 4.68 13 4 C11.7315625 4.0928125 11.7315625 4.0928125 10.4375 4.1875 C6.26380157 3.95984372 3.74567053 2.79792186 0 1 C0 0.67 0 0.34 0 0 Z " fill="#223E3D" transform="translate(314,270)"/>
<path d="M0 0 C3.5875213 1.33250791 6.8364623 2.830717 10 5 C10 5.66 10 6.32 10 7 C11.65 7.33 13.3 7.66 15 8 C15 8.66 15 9.32 15 10 C16.32 10.66 17.64 11.32 19 12 C19 12.99 19 13.98 19 15 C18.45730469 14.57847656 17.91460937 14.15695312 17.35546875 13.72265625 C16.64003906 13.17480469 15.92460937 12.62695312 15.1875 12.0625 C14.12595703 11.24458984 14.12595703 11.24458984 13.04296875 10.41015625 C10.95874948 8.83143752 10.95874948 8.83143752 8 8 C8 7.34 8 6.68 8 6 C5.36095629 4.58622659 2.92879371 3.62759865 0 3 C0 2.01 0 1.02 0 0 Z " fill="#457E7D" transform="translate(410,309)"/>
<path d="M0 0 C2.64 0 5.28 0 8 0 C8 0.66 8 1.32 8 2 C8.99 2 9.98 2 11 2 C11 2.66 11 3.32 11 4 C11.515625 4.103125 12.03125 4.20625 12.5625 4.3125 C15.86026435 5.24263866 18.86633332 6.61395512 22 8 C19.39197919 8.98924927 18.30458627 9.12091616 15.66796875 8.07421875 C14.84941406 7.61660156 14.03085937 7.15898437 13.1875 6.6875 C10.12014173 5.04492057 7.31450463 3.66372844 3.9375 2.8125 C2.968125 2.544375 1.99875 2.27625 1 2 C0.67 1.34 0.34 0.68 0 0 Z " fill="#478380" transform="translate(379,293)"/>
<path d="M0 0 C3.35217997 1.17779296 5.88666625 2.08158673 8 5 C8.71927295 7.31765729 9.3909893 9.65095874 10 12 C10.33 12.33 10.66 12.66 11 13 C11.14115161 15.67058851 11.04247107 18.32432238 11 21 C10.67 21 10.34 21 10 21 C10 18.69 10 16.38 10 14 C9.34 14 8.68 14 8 14 C7.67386719 13.32453125 7.34773438 12.6490625 7.01171875 11.953125 C6.57472656 11.06109375 6.13773437 10.1690625 5.6875 9.25 C5.25824219 8.36828125 4.82898438 7.4865625 4.38671875 6.578125 C3.09896854 4.18399785 1.69084246 2.12223042 0 0 Z " fill="#467F7D" transform="translate(333,370)"/>
<path d="M0 0 C0.66 0 1.32 0 2 0 C2 1.32 2 2.64 2 4 C2.598125 4.2475 3.19625 4.495 3.8125 4.75 C6.31626919 6.18072525 7.48072388 7.5691582 9 10 C9 10.66 9 11.32 9 12 C9.66 12 10.32 12 11 12 C11.66 13.32 12.32 14.64 13 16 C10.5625 15.25 10.5625 15.25 8 14 C7.6278958 12.67696283 7.29369827 11.34262065 7 10 C5.0162233 8.71563266 5.0162233 8.71563266 3 8 C3 7.34 3 6.68 3 6 C2.01 5.67 1.02 5.34 0 5 C0 3.35 0 1.7 0 0 Z " fill="#6CC5C2" transform="translate(143,265)"/>
<path d="M0 0 C4.47309039 0.50830573 8.80238996 1.34983963 13.1875 2.375 C14.19167969 2.60960937 15.19585937 2.84421875 16.23046875 3.0859375 C19.01873767 4.00618423 20.78249509 5.10532994 23 7 C19.54567894 6.58548147 16.36273259 6.12348344 13.0625 5 C10.44948289 4.14676992 8.44717552 3.80062901 5.75 3.5625 C3.89375 3.2840625 3.89375 3.2840625 2 3 C1.34 2.01 0.68 1.02 0 0 Z " fill="#6AC1BE" transform="translate(386,193)"/>
<path d="M0 0 C7.82791762 0.44686931 15.56204355 1.40044666 23 4 C23.33 4.66 23.66 5.32 24 6 C4.33333333 4.33333333 4.33333333 4.33333333 0 0 Z " fill="#2E5553" transform="translate(360,186)"/>
<path d="M0 0 C0.99 0 1.98 0 3 0 C2.68289062 0.63292969 2.36578125 1.26585937 2.0390625 1.91796875 C0.64495753 6.05311469 0.53929479 9.97580212 0.375 14.3125 C0.33632812 15.14845703 0.29765625 15.98441406 0.2578125 16.84570312 C0.16404841 18.89679259 0.08095755 20.94836515 0 23 C-3.39986383 17.90020426 -2.5909703 11.34713352 -1.546875 5.43359375 C-1.08937174 3.60684861 -0.55381191 1.79988872 0 0 Z " fill="#1B3131" transform="translate(245,208)"/>
<path d="M0 0 C9.95662322 -0.67886067 18.52181404 1.30569333 28 4 C28 4.33 28 4.66 28 5 C22.25 5.125 22.25 5.125 20 4 C17.75546417 3.63166591 15.50410321 3.30435149 13.25 3 C8.81992791 2.39675614 4.40659807 1.75696163 0 1 C0 0.67 0 0.34 0 0 Z " fill="#529693" transform="translate(392,127)"/>
<path d="M0 0 C6.15234375 -0.09765625 6.15234375 -0.09765625 8 0 C8.33 0.33 8.66 0.66 9 1 C10.155 1.144375 11.31 1.28875 12.5 1.4375 C13.655 1.623125 14.81 1.80875 16 2 C16.33 2.66 16.66 3.32 17 4 C17.99 4.66 18.98 5.32 20 6 C13.04976736 5.35346673 6.61822697 3.13972752 0 1 C0 0.67 0 0.34 0 0 Z " fill="#6FCAC7" transform="translate(191,413)"/>
<path d="M0 0 C7.66181818 3.74181818 7.66181818 3.74181818 11 6 C11 6.66 11 7.32 11 8 C11.66 8 12.32 8 13 8 C13 8.66 13 9.32 13 10 C13.66 10 14.32 10 15 10 C14.67 10.66 14.34 11.32 14 12 C12.4122595 11.09098826 10.82998803 10.17242076 9.25 9.25 C8.36828125 8.73953125 7.4865625 8.2290625 6.578125 7.703125 C4.01371615 6.00906097 2.01520773 4.3165472 0 2 C0 1.34 0 0.68 0 0 Z " fill="#264544" transform="translate(156,281)"/>
<path d="M0 0 C0.66 0.33 1.32 0.66 2 1 C1.22914063 1.48210937 0.45828125 1.96421875 -0.3359375 2.4609375 C-1.33882812 3.09257812 -2.34171875 3.72421875 -3.375 4.375 C-4.37273437 5.00148437 -5.37046875 5.62796875 -6.3984375 6.2734375 C-9.0248019 7.89269712 -9.0248019 7.89269712 -11 10 C-13.125 9.625 -13.125 9.625 -15 9 C-12.07508941 5.76319136 -9.35082606 3.96108279 -5.375 2.1875 C-4.41335937 1.74792969 -3.45171875 1.30835938 -2.4609375 0.85546875 C-1.64882812 0.57316406 -0.83671875 0.29085937 0 0 Z " fill="#4D8C8A" transform="translate(188,146)"/>
<path d="M0 0 C4.40958108 0.66607439 8.26572186 2.26624729 12.3125 4.0625 C13.28026367 4.48499023 13.28026367 4.48499023 14.26757812 4.91601562 C15.84698358 5.6062743 17.42376493 6.30253198 19 7 C19 7.33 19 7.66 19 8 C16.625 8.125 16.625 8.125 14 8 C13.34 7.34 12.68 6.68 12 6 C10.13436115 5.36146707 10.13436115 5.36146707 8.0625 4.9375 C5.63370866 4.38818458 3.37120638 3.79040213 1 3 C0.67 2.01 0.34 1.02 0 0 Z " fill="#1F3837" transform="translate(160,403)"/>
<path d="M0 0 C0 0.66 0 1.32 0 2 C-11.33712984 7.55580866 -11.33712984 7.55580866 -18 8 C-17.67 7.34 -17.34 6.68 -17 6 C-16.01 6 -15.02 6 -14 6 C-14 5.34 -14 4.68 -14 4 C-12.0429132 3.32968281 -10.08428887 2.66385317 -8.125 2 C-7.03445312 1.62875 -5.94390625 1.2575 -4.8203125 0.875 C-2 0 -2 0 0 0 Z " fill="#203B3A" transform="translate(207,140)"/>
<path d="M0 0 C-3.40431947 2.26954631 -5.16524202 2.36549949 -9.1875 2.625 C-10.27417969 2.69976562 -11.36085938 2.77453125 -12.48046875 2.8515625 C-13.72763672 2.92503906 -13.72763672 2.92503906 -15 3 C-11.22978571 -1.26351336 -4.97783905 -3.73337929 0 0 Z " fill="#457F7D" transform="translate(386,472)"/>
<path d="M0 0 C8.86956522 0.73913043 8.86956522 0.73913043 12 4 C12 4.66 12 5.32 12 6 C12.66 6.33 13.32 6.66 14 7 C4.82713348 5.82713348 4.82713348 5.82713348 1.375 2.375 C0.92125 1.59125 0.4675 0.8075 0 0 Z " fill="#6AC1BE" transform="translate(154,398)"/>
<path d="M0 0 C0 0.66 0 1.32 0 2 C-2.12209776 2.69640673 -4.24778527 3.38188357 -6.375 4.0625 C-8.15003906 4.63677734 -8.15003906 4.63677734 -9.9609375 5.22265625 C-13 6 -13 6 -15 5 C-13.35 4.67 -11.7 4.34 -10 4 C-10 3.01 -10 2.02 -10 1 C-6.78548731 -0.60725635 -3.56387464 -0.05748185 0 0 Z " fill="#213C3B" transform="translate(288,186)"/>
<path d="M0 0 C5.27323808 -0.68041782 9.39388711 1.75213663 14 4 C14 4.66 14 5.32 14 6 C14.99 6 15.98 6 17 6 C17 6.66 17 7.32 17 8 C11.00067626 6.1668733 5.55079437 3.92678249 0 1 C0 0.67 0 0.34 0 0 Z " fill="#132323" transform="translate(411,198)"/>
<path d="M0 0 C4.95745654 2.89082453 9.11973109 5.75595588 13 10 C10.69 9.67 8.38 9.34 6 9 C5.87625 8.071875 5.87625 8.071875 5.75 7.125 C5.20605562 4.82027141 5.20605562 4.82027141 3 3.9375 C2.34 3.628125 1.68 3.31875 1 3 C0.67 2.01 0.34 1.02 0 0 Z " fill="#376563" transform="translate(254,239)"/>
<path d="M0 0 C1.39195915 4.17587745 -0.17676781 6.13474776 -2 10 C-2.99 10 -3.98 10 -5 10 C-5.33 11.98 -5.66 13.96 -6 16 C-6.99 16.33 -7.98 16.66 -9 17 C-7.65957929 13.39117502 -6.0239079 10.26938968 -4 7 C-2.65457625 4.67343691 -1.32848796 2.3363064 0 0 Z " fill="#223E3D" transform="translate(148,183)"/>
<path d="M0 0 C0.66 0.33 1.32 0.66 2 1 C-6.10526316 8 -6.10526316 8 -12 8 C-12 7.34 -12 6.68 -12 6 C-9 4 -9 4 -6.375 3.5 C-5.59125 3.335 -4.8075 3.17 -4 3 C-3.67 2.34 -3.34 1.68 -3 1 C-2.01 0.67 -1.02 0.34 0 0 Z " fill="#162A29" transform="translate(410,455)"/>
<path d="M0 0 C0.33 1.32 0.66 2.64 1 4 C-0.91197039 4.70045456 -2.82980435 5.384919 -4.75 6.0625 C-5.81734375 6.44535156 -6.8846875 6.82820313 -7.984375 7.22265625 C-10.92280042 7.98010011 -12.22348948 8.07151741 -15 7 C-14.16855469 6.66226562 -13.33710938 6.32453125 -12.48046875 5.9765625 C-11.39378906 5.53054688 -10.30710937 5.08453125 -9.1875 4.625 C-8.10855469 4.18414062 -7.02960938 3.74328125 -5.91796875 3.2890625 C-2.89269888 2.0520881 -2.89269888 2.0520881 0 0 Z " fill="#274847" transform="translate(328,412)"/>
<path d="M0 0 C-1.26391488 1.00873016 -2.53640883 2.00671822 -3.8125 3 C-4.87404297 3.8353125 -4.87404297 3.8353125 -5.95703125 4.6875 C-8 6 -8 6 -11 6 C-8.99478859 0.71353355 -5.45752006 -1.70692649 0 0 Z " fill="#78DBD7" transform="translate(423,453)"/>
<path d="M0 0 C0.66 0 1.32 0 2 0 C2.309375 0.804375 2.61875 1.60875 2.9375 2.4375 C3.76335345 4.89080405 3.76335345 4.89080405 5 6 C5.07244053 8.01964199 5.08377188 10.04167124 5.0625 12.0625 C5.05347656 13.16722656 5.04445313 14.27195312 5.03515625 15.41015625 C5.02355469 16.26480469 5.01195312 17.11945313 5 18 C3.35 18 1.7 18 0 18 C1.32 17.67 2.64 17.34 4 17 C3.87625 15.741875 3.7525 14.48375 3.625 13.1875 C3.55539062 12.47980469 3.48578125 11.77210938 3.4140625 11.04296875 C3.07334609 8.70011858 3.07334609 8.70011858 1 6 C0.60986284 4.0103005 0.26797351 2.00980131 0 0 Z " fill="#223F3E" transform="translate(340,374)"/>
<path d="M0 0 C1.77174819 0.08723378 3.54247377 0.19541655 5.3125 0.3125 C6.29863281 0.37050781 7.28476562 0.42851562 8.30078125 0.48828125 C11.24384457 1.04622813 12.18182999 1.68540132 14 4 C9.02906176 3.58846263 4.55491614 3.20399168 0 1 C0 0.67 0 0.34 0 0 Z " fill="#1B3232" transform="translate(268,337)"/>
<path d="M0 0 C0.66 0.66 1.32 1.32 2 2 C-1.9813783 3.3271261 -5.85045227 3.06915913 -10 3 C-7.06816681 -1.39774978 -4.80923825 -1.35645182 0 0 Z " fill="#6BC3C0" transform="translate(261,124)"/>
<path d="M0 0 C0.33 0.99 0.66 1.98 1 3 C-2.63 6.63 -6.26 10.26 -10 14 C-10.33 13.34 -10.66 12.68 -11 12 C-10.195625 11.236875 -9.39125 10.47375 -8.5625 9.6875 C-5.83200976 7.20569102 -5.83200976 7.20569102 -5 4 C-3.68352881 3.30062468 -2.34977849 2.63270867 -1 2 C-0.67 1.34 -0.34 0.68 0 0 Z " fill="#376463" transform="translate(434,435)"/>
<path d="M0 0 C5.46737191 1.74807129 10.75824848 3.65794081 16 6 C16 6.66 16 7.32 16 8 C12.55643629 7.27202572 9.51785597 6.00469621 6.3125 4.5625 C5.33925781 4.13066406 4.36601562 3.69882812 3.36328125 3.25390625 C1 2 1 2 0 0 Z " fill="#3D706E" transform="translate(294,346)"/>
<path d="M0 0 C-6.89805097 4.8125937 -6.89805097 4.8125937 -11 6 C-13.1484375 5.54296875 -13.1484375 5.54296875 -15 5 C-2.63803681 -1.3190184 -2.63803681 -1.3190184 0 0 Z " fill="#5FADAA" transform="translate(211,137)"/>
<path d="M0 0 C6.29785459 0.94592282 10.96066973 2.02158136 16 6 C15.34 6.66 14.68 7.32 14 8 C14 7.34 14 6.68 14 6 C13.32453125 5.80664062 12.6490625 5.61328125 11.953125 5.4140625 C10.61507813 5.02347656 10.61507813 5.02347656 9.25 4.625 C8.36828125 4.36976563 7.4865625 4.11453125 6.578125 3.8515625 C4.23919428 3.0790066 2.16557438 2.16374324 0 1 C0 0.67 0 0.34 0 0 Z " fill="#122020" transform="translate(296,346)"/>
<path d="M0 0 C1.32 0 2.64 0 4 0 C4 0.66 4 1.32 4 2 C4.99 2 5.98 2 7 2 C7 2.66 7 3.32 7 4 C8.32 4 9.64 4 11 4 C11 4.66 11 5.32 11 6 C6.64477147 5.49357808 3.55760365 4.61588503 0 2 C0 1.34 0 0.68 0 0 Z " fill="#172A2A" transform="translate(189,305)"/>
<path d="M0 0 C5.23272633 1.63958758 10.15196636 3.38952035 15 6 C13.375 6.6875 13.375 6.6875 11 7 C8.97481509 6.0520411 6.97522846 5.04808041 5 4 C2.26427415 3.30092586 2.26427415 3.30092586 0 3 C0 2.01 0 1.02 0 0 Z " fill="#3D6F6E" transform="translate(267,249)"/>
<path d="M0 0 C6.22987798 0.50512524 11.45474233 3.32604123 17 6 C13.99353048 7.30230734 12.90644333 6.96485975 9.765625 5.78515625 C8.60546875 5.21667969 7.4453125 4.64820313 6.25 4.0625 C4.49429687 3.21365234 4.49429687 3.21365234 2.703125 2.34765625 C1.81109375 1.90292969 0.9190625 1.45820313 0 1 C0 0.67 0 0.34 0 0 Z " fill="#417674" transform="translate(407,198)"/>
<path d="M0 0 C2.97 0.33 5.94 0.66 9 1 C9 1.66 9 2.32 9 3 C9.804375 3.12375 10.60875 3.2475 11.4375 3.375 C12.7059375 3.684375 12.7059375 3.684375 14 4 C14.33 4.66 14.66 5.32 15 6 C9.55432314 4.97137215 4.88182883 3.75385216 0 1 C0 0.67 0 0.34 0 0 Z " fill="#569D9A" transform="translate(282,256)"/>
<path d="M0 0 C0.99 0.66 1.98 1.32 3 2 C1.8141763 5.37503669 0.72426311 7.64722731 -2 10 C-2.66 9.67 -3.32 9.34 -4 9 C-3.2884375 7.88625 -3.2884375 7.88625 -2.5625 6.75 C-1.22130673 4.38949985 -0.487688 2.63351523 0 0 Z " fill="#539895" transform="translate(156,166)"/>
<path d="M0 0 C0.33 0 0.66 0 1 0 C1.04898438 0.74765625 1.09796875 1.4953125 1.1484375 2.265625 C1.22320312 3.25046875 1.29796875 4.2353125 1.375 5.25 C1.44460937 6.22453125 1.51421875 7.1990625 1.5859375 8.203125 C1.9875652 10.91600643 2.74015095 12.6062868 4 15 C3.625 17.25 3.625 17.25 3 19 C-1.0449982 13.10104429 -0.27748976 6.92696672 0 0 Z " fill="#5DAAA7" transform="translate(246,215)"/>
<path d="M0 0 C1.32 0.33 2.64 0.66 4 1 C4 1.66 4 2.32 4 3 C4.66 3 5.32 3 6 3 C6 3.66 6 4.32 6 5 C6.99 5.33 7.98 5.66 9 6 C8.67 6.99 8.34 7.98 8 9 C4.36905358 6.35039045 2.10148204 3.98175544 0 0 Z " fill="#213C3B" transform="translate(328,363)"/>
<path d="M0 0 C1.45880109 0.14107747 2.91703551 0.28802415 4.375 0.4375 C5.59316406 0.55931641 5.59316406 0.55931641 6.8359375 0.68359375 C9 1 9 1 11 2 C11 2.66 11 3.32 11 4 C7.0507432 3.44894091 3.65079826 2.61064629 0 1 C0 0.67 0 0.34 0 0 Z " fill="#152625" transform="translate(314,270)"/>
<path d="M0 0 C4.6875 0.78125 4.6875 0.78125 9.375 1.5625 C10.674375 1.7790625 10.674375 1.7790625 12 2 C12.33 2.99 12.66 3.98 13 5 C8.39146203 4.27991594 4.32762591 2.68704061 0 1 C0 0.67 0 0.34 0 0 Z " fill="#64B7B4" transform="translate(298,262)"/>
<path d="M0 0 C0 0.33 0 0.66 0 1 C-2.64 1 -5.28 1 -8 1 C-8 1.66 -8 2.32 -8 3 C-10.97 3 -13.94 3 -17 3 C-17 2.67 -17 2.34 -17 2 C-11.21642935 -0.01167675 -6.09781001 -0.22084624 0 0 Z " fill="#7FE7E3" transform="translate(251,126)"/>
<path d="M0 0 C3.6875 0.3125 3.6875 0.3125 7 1 C6.67 1.66 6.34 2.32 6 3 C3.03 3 0.06 3 -3 3 C-2.01 2.01 -1.02 1.02 0 0 Z " fill="#73D2CE" transform="translate(338,482)"/>
<path d="M0 0 C0.8971875 0.309375 0.8971875 0.309375 1.8125 0.625 C0.71491493 1.46698307 -0.39085317 2.29830671 -1.5 3.125 C-2.11488281 3.5890625 -2.72976563 4.053125 -3.36328125 4.53125 C-5.1875 5.625 -5.1875 5.625 -8.1875 5.625 C-8.1875 4.965 -8.1875 4.305 -8.1875 3.625 C-7.1975 3.625 -6.2075 3.625 -5.1875 3.625 C-5.1875 2.965 -5.1875 2.305 -5.1875 1.625 C-2.1875 -0.375 -2.1875 -0.375 0 0 Z " fill="#376563" transform="translate(421.1875,449.375)"/>
<path d="M0 0 C0.66 1.32 1.32 2.64 2 4 C2.66 4 3.32 4 4 4 C4 6.31 4 8.62 4 11 C3.34 11 2.68 11 2 11 C0.80712589 7.12315913 0 4.08378077 0 0 Z " fill="#66BBB8" transform="translate(339,380)"/>
<path d="M0 0 C4.31392226 0.4793247 6.16569547 1.7457985 9 5 C8.01 5.495 8.01 5.495 7 6 C6.01 5.67 5.02 5.34 4 5 C4 4.34 4 3.68 4 3 C2.68 2.34 1.36 1.68 0 1 C0 0.67 0 0.34 0 0 Z " fill="#46807E" transform="translate(181,302)"/>
<path d="M0 0 C0.99 0.33 1.98 0.66 3 1 C1.625 2.5 1.625 2.5 0 4 C-0.66 4 -1.32 4 -2 4 C-2.33 5.32 -2.66 6.64 -3 8 C-3.66 8 -4.32 8 -5 8 C-5 6.68 -5 5.36 -5 4 C-3.35 3.34 -1.7 2.68 0 2 C0 1.34 0 0.68 0 0 Z " fill="#111F1F" transform="translate(426,441)"/>
<path d="M0 0 C0 0.66 0 1.32 0 2 C-6.45 6.09326923 -6.45 6.09326923 -9.234375 5.62109375 C-9.81703125 5.41613281 -10.3996875 5.21117187 -11 5 C-9.54462432 4.16151196 -8.08559627 3.32936066 -6.625 2.5 C-5.81289063 2.0359375 -5.00078125 1.571875 -4.1640625 1.09375 C-2 0 -2 0 0 0 Z " fill="#64B7B4" transform="translate(328,411)"/>
<path d="M0 0 C3.93673644 1.31224548 6.22719294 2.91910327 9 6 C5.21213403 5.4739075 2.82847776 4.61896089 0 2 C0 1.34 0 0.68 0 0 Z " fill="#75D6D3" transform="translate(319,360)"/>
<path d="M0 0 C-3.03525486 2.02350324 -4.19426202 2.32124018 -7.6875 2.625 C-8.49574219 2.69976562 -9.30398438 2.77453125 -10.13671875 2.8515625 C-10.75160156 2.90054688 -11.36648438 2.94953125 -12 3 C-11 1 -11 1 -7.6875 -0.1875 C-4.42437937 -0.90649268 -3.00717118 -1.20286847 0 0 Z " fill="#427977" transform="translate(273,193)"/>
<path d="M0 0 C0.33 0.99 0.66 1.98 1 3 C0.01 3.33 -0.98 3.66 -2 4 C-2 4.66 -2 5.32 -2 6 C-4.5 7.625 -4.5 7.625 -7 9 C-5.44499019 5.18315774 -2.96404505 2.80804268 0 0 Z " fill="#192E2D" transform="translate(156,173)"/>
<path d="M0 0 C5.19209404 -0.21192221 9.126739 0.4087311 14 2 C14 2.33 14 2.66 14 3 C8.78020872 3.1799928 4.92737019 2.97094808 0 1 C0 0.67 0 0.34 0 0 Z " fill="#81ECE8" transform="translate(400,126)"/>
<path d="M0 0 C4.95 0.99 4.95 0.99 10 2 C10 2.99 10 3.98 10 5 C8.51800098 4.55090939 7.03944764 4.09043436 5.5625 3.625 C4.73878906 3.36976563 3.91507813 3.11453125 3.06640625 2.8515625 C1 2 1 2 0 0 Z " fill="#437A78" transform="translate(136,467)"/>
<path d="M0 0 C1.485 0.99 1.485 0.99 3 2 C3.40843923 4.71203652 3.13336867 7.2437142 3 10 C0.70366176 6.55549263 0.45983515 4.06187717 0 0 Z " fill="#68BEBB" transform="translate(451,361)"/>
<path d="M0 0 C3.9492568 0.55105909 7.34920174 1.38935371 11 3 C7.93109813 4.53445094 5.29905734 3.54984289 2 3 C2 2.34 2 1.68 2 1 C1.34 0.67 0.68 0.34 0 0 Z " fill="#61B1AF" transform="translate(284,344)"/>
<path d="M0 0 C2.97 0 5.94 0 9 0 C9.33 0.99 9.66 1.98 10 3 C6.66666667 2.33333333 3.33333333 1.66666667 0 1 C0 0.67 0 0.34 0 0 Z " fill="#74D3D1" transform="translate(246,333)"/>
<path d="M0 0 C1.485 0.99 1.485 0.99 3 2 C3 2.66 3 3.32 3 4 C3.66 4 4.32 4 5 4 C5.66 5.32 6.32 6.64 7 8 C4.625 7.375 4.625 7.375 2 6 C0.6875 2.875 0.6875 2.875 0 0 Z " fill="#4C8A87" transform="translate(149,273)"/>
<path d="M0 0 C2.97 0 5.94 0 9 0 C8.67 0.99 8.34 1.98 8 3 C4.62537285 2.45276317 2.91765 1.9451 0 0 Z " fill="#23403F" transform="translate(415,132)"/>
<path d="M0 0 C3.68754757 0.49831724 5.60490662 1.10067643 8 4 C5.125 3.6875 5.125 3.6875 2 3 C1.34 2.01 0.68 1.02 0 0 Z " fill="#182C2B" transform="translate(283,258)"/>
</svg>
